<svg id="Layer_1" data-name="Layer 1" xmlns="http://www.w3.org/2000/svg" viewBox="0 0 711.06 456.24"><defs><style>.cls-1{fill:#211e43;}.cls-2{fill:#d69b29;}.cls-3{fill:#e9b454;}.cls-4{fill:#bd9144;}.cls-5{fill:#373d45;}.cls-6{fill:#c28422;}.cls-7{fill:#f1c984;}.cls-8{fill:#fcedd2;}.cls-9{fill:#ce830f;}.cls-10{fill:#dba641;}.cls-11{fill:#332f29;}.cls-12{fill:#a36417;}.cls-13{fill:#2a323b;}.cls-14{fill:#4f4d4e;}.cls-15{fill:#683f18;}.cls-16{fill:#b8b5aa;}.cls-17{fill:#e0a346;}</style></defs><path class="cls-1" d="M310.42,167.65a1332.35,1332.35,0,0,0,167.71-6.84c6.55-.68,13.28-1.47,19.13-4.51,13.54-7,18.45-23.56,27.42-35.9C536,104.84,554,95.85,571.41,87.69,589.9,79,609.07,70.5,629.47,69.5c23.73-1.16,46.62,8,68.63,16.92,17.75,7.22,35.87,14.67,50.23,27.36,23,20.32,33.55,53.67,26.48,83.52-5.44,22.93-20,42.41-32,62.67s-22.07,43.83-17.1,66.87c2.61,12.07,9.18,23,11.77,35.07s-.36,27-11.5,32.31q-7.73,44.85-18.7,89.06c-3.93,15.85-10,33.73-25.09,39.85-6.52,2.63-13.77,2.57-20.81,2.47l-81.8-1.14c-35.69-.5-71.89-1.07-106.18-11-8.47-2.45-17.12-5.49-25.88-4.42-11.36,1.39-20.82,9.47-31.9,12.38s-26.54-4.14-24.19-15.35c-11-.05-21,5.76-31.39,9.33s-23.47,4.3-30.82-3.86c-3.8-4.23-6.05-10.71-11.59-12-6.08-1.4-11,4.46-15.93,8.34-13.13,10.42-31.83,7.8-48.56,6.88-11.71-.64-23.45-.19-35.17-.06a628.81,628.81,0,0,1-111-8.64c-10-1.67-20.49-3.85-28-10.61-11.42-10.23-12.58-27.41-12.93-42.73l24.38-3.22L77,432.25l20.69-2-20-27.83a83.35,83.35,0,0,1,30.38-2.94c3.16-6-4.51-11.74-10.69-14.56S84.22,375,88.63,369.79c1.38-1.61,3.52-2.32,5.57-2.85,13-3.36,26.76-2.44,39.72-5.83,21.57-5.65,42.62-23.07,63.52-15.31-8.85-15.81-30.85-22.6-47.07-14.51-6.06-7,4-16.38,12.28-20.61s16.82-15.85,9.1-21c-12.76,1-24.53-12.3-21.93-24.84s18.69-20.08,30-14.07l-21.75-20.89a20.75,20.75,0,0,1,18.23-5,17.37,17.37,0,0,1-8.24-20.68c-1.6,4.44,27.34-3.24,30.2-5.57C207.66,191,208.43,183.17,219,177,244,162.44,282.85,167,310.42,167.65Z" transform="translate(-65.92 -69.4)"/><g id="_7DOimm" data-name="7DOimm"><path class="cls-2" d="M732.8,205.18a3.08,3.08,0,0,1-.72-3.09c2.66-1.25,3.78-3.67,4.71-6.24C740.51,201.12,737.4,203.47,732.8,205.18Z" transform="translate(-65.92 -69.4)"/><path class="cls-2" d="M736.36,191.28l-.93-1.66Z" transform="translate(-65.92 -69.4)"/><path class="cls-3" d="M728.85,134a4,4,0,0,0,0,1.19c-.74,3.87.51,7.31,2.13,10.72,5.7,11.92,10.5,24.1,9.87,37.66a21.47,21.47,0,0,0,.75,7.43c2.36,7.93-1.36,15.44-7.91,17.34a2.91,2.91,0,0,1-.92-3.2c4.6-1.71,7.71-4.06,4-9.33.31-1.56.94-3.16-.43-4.57l-.93-1.66c-2.69-4.79-7.67-6.46-12-9.11-.87-.53-.48-3.69-2.71-3-2.46.81-2.42,3.08-1.38,5.24-.93,2.34.55,4.93-1.07,7.31-2.62,3.83-1.17,6.89,2.42,9.26l-.3,2.71L717,215.9l-1.53,1.28c-2.29-2.25,3.54-6.11-.52-6.87s-3.09,4.25-4.21,6.8a6.84,6.84,0,0,0-.28,1.36l-4.59.16c1-5.7.61-11.54,2-17.25.6-2.47.61-5.72-2.19-7.65-1.42-1-1.46-2.14-.83-3.63,3.71-8.68,5.32-17.87,6.35-27.18.74-1.1.11-3.16,2.95-2.58,4.49.93,7.22,4.31,10.77,6.53l1.36,1.3,7.16,5.11.75.8-.36-1c-.07-3.25-.13-6.5-2-9.35,1.16-3.45-.74-4.63-3.71-5.23s-4.67-2-3.67-5.43c2.13.09,3.58,4.11,5.89.66,2.84-4.24-1.28-2.46-2.61-3.1,2-3.69-4.44-2.67-3.25-5.9,1.58-4.26,1.71-8-3.44-10-1.62-.62-1.7-2.07-1.57-3.54l4.85-1.59,2.32,1A3.25,3.25,0,0,0,728.85,134Z" transform="translate(-65.92 -69.4)"/><path class="cls-4" d="M631,340.08l-5.57-1c-8.6-2.93-17.59-3.83-26.5-5.2l-.14-.35.32-.21c.06-4.11-2.54-7-4.71-10l.36-1.51c-.16-1.82,1.67-3.66-.07-5.46.4-1,2.51-.77,1.91-2.1a2.05,2.05,0,0,0-3-.6c-1,1,.23,1.95,1,2.71-.21.52-.41,1-.61,1.55-3.17,1.29-5.67.16-7.82-2.19q-1.94-7.1-3.89-14.2c.13-.44.24-.89.35-1.34a3.08,3.08,0,0,0,2.08-2.54c.14-.44.27-.88.4-1.32,2,.27,3.89,1.65,5.85,0l1.29.37c-.55,2.27-1.24,4.53-1.62,6.83-.56,3.51.92,6,4.39,6.91,2.79.76,5.74,1.1,7.33-2.09,1.85-3.72-.77-4.79-3.63-5.91-2.07-.8-1.23-2.7-.88-4.27,2.79-.32,5.67-.29,8.33-1,2.88-.82,3.88.91,3.52,2.74-1.05,5.3,1.75,10.6-.26,15.82-3.93-1.17-6.7.2-8.43,3.84L600,317.75c-.1-1.18-.48-1.27-1.15-.3-1,3.06-.57,6.14,2.93,6.35,4.69.28,9.8,7.57,14.21-.44,1.94.14,4.15,1,5.08-1.78,2.39-3.93-1.72-7.11-1.25-10.82L626,314c-.34,1.33-.69,2.66-1,4-.72,2.82-1.45,5.64-2.17,8.45,1,7.42-8.1,2.44-9.44,7.36,4.73,2.88,11-1.32,15,3.86.57.75,1.88-.83,2.36-1.92,2.81,1.13,5.74.61,8.63.55a6.23,6.23,0,0,1,2.16,4l-4.61,0C634.88,340,633,339,631,340.08Z" transform="translate(-65.92 -69.4)"/><path class="cls-5" d="M594.73,321.76l-.36,1.52c-.6,2.29-1.21,4.58-1.81,6.88-2.58,1.11-5,.28-7.45-.56-11.56-3.94-23.15-7.8-34.73-11.69,0-.52.09-1,.13-1.56.45-1.23.89-2.46,1.33-3.7,4.55-4.81,2.8-12.24,7.12-17.15,3.45.73,5.21-1.69,6.55-4.05,1.61-2.86,3-2.08,4.78-.42-.72,2.88-1.35,5.78-2.19,8.63s.46,4.28,3.15,4.8c-.22.92-.45,1.83-.68,2.75.24,4-5.51,8.84,1.63,11.91a4.62,4.62,0,0,1,1,.64c3.1,4,7.69,3,10.93,1.63,3.59-1.54,6.21-.42,9.24.36A3.9,3.9,0,0,0,594.73,321.76Z" transform="translate(-65.92 -69.4)"/><path class="cls-6" d="M641.43,340.32a6.23,6.23,0,0,0-2.16-4,2.77,2.77,0,0,0-.69-3c.59-2.16.71-3.94-2-5s-4.1-3.49-5.61-5.77c0-3.43,4.21-6.94-.21-10.28q-.69-3-1.4-6c.95-2.38-1-4.13-1.34-6.23.15-3,4.81-3.29,4.15-6.86l-5.51.54,0,0c.34-1.35.69-2.71,1-4.06,2.49-1.05,4.89-2.74,7.74-1-1.2,4.52,1.6,6.69,5,8.49-1.72,3.67,1.31,6.28,2.08,9.4-4,2.47-5.88,5.27-6.73,10.67-.79,5,.51,5.42,3.88,6.29,4.79,7.41,10.38,8.78,15.07,3.69.49-1.19,1.38-3.67,2-2.92,2.17,2.86,7.93,2.72,7,8.12-2.17.43-4.14,1.37-6.5,1.53-4.53.31-3.53,2.31-.61,4.18-.5,2-2.65,2-3.89,3.07l-4.11-.34c.15-1,1.65-2.38.36-3-2.77-1.33-4.62.74-6.41,2.52l-.58.1Z" transform="translate(-65.92 -69.4)"/><path class="cls-6" d="M548.37,222.41c.24-1.39.48-2.77.71-4.16q.79-10.8,1.58-21.62c.11-.93.21-1.86.32-2.78.45-1.78.9-3.55,1.36-5.33l.42-.18c2.93,2.71-1.25,7.9,3.47,10-1.27,2.67-1,5.45-.59,8.25-1.66,10.5-3.39,21-2.6,31.69q-.87,7-1.75,14.11l-1,4.27a17.25,17.25,0,0,0,.22,8.85c-.5,2-1.77,4,0,6,.76,2.84,4.5,5.94-.72,8.26-4.31.07-.93,5.86-4.7,6.33-1.12-6.53.19-13,.6-19.47Q547,244.53,548.37,222.41Z" transform="translate(-65.92 -69.4)"/><path class="cls-7" d="M547.23,147.25a9.14,9.14,0,0,0,.23-1.27l6.54-8.21,1.73-1.08A3.25,3.25,0,0,0,559.4,135c4.6,2,6.68-3.87,10.77-3.46,3.17,1.12,5.25-.34,7.27-2.67,3.28-3.78,6.82-7.33,10.25-11,.12,4.24,7.82,6.2,3.53,11.76a8.34,8.34,0,0,1-.51,1c-6.43-.12-11.37,2.7-15.22,7.67l-.09,0c-1.9-.54-3.71-.8-4.75,1.46l-2.6-.24c-2.92-1.21-4.67-.23-5.31,2.83l-.06,0c-6.83-2.3-11.2.12-13.3,6.91Z" transform="translate(-65.92 -69.4)"/><path class="cls-8" d="M733.72,208.38c6.55-1.9,10.27-9.41,7.91-17.34a21.47,21.47,0,0,1-.75-7.43c.63-13.56-4.17-25.74-9.87-37.66-1.62-3.41-2.87-6.85-2.13-10.72,5.68,3.18,6.77,10,8,14.69,2.36,8.81,6.82,17,8.11,26.11.36,2.56,1.66,4.58-.37,7a4.91,4.91,0,0,0-.59,4c3.66,11.19-.07,19.58-9.59,25.76a8.35,8.35,0,0,0-3.64,5.76c-.62,2.87-1.81,5.35-4.47,6.88l1.86-6.57Q731,213.64,733.72,208.38Z" transform="translate(-65.92 -69.4)"/><path class="cls-9" d="M728.21,218.9l-1.86,6.57-.93,2.62-8.37,15.49-7.16-.49.71-2.56c3.41-4,4.23-8.65,3.83-13.69-.07-.53-.15-1.05-.22-1.58a3.6,3.6,0,0,1,.69-1.22c5.21-1.91,6.16-7.06,8.5-11.16h.06l1.49.22C727.78,214.05,728.26,216.33,728.21,218.9Z" transform="translate(-65.92 -69.4)"/><path class="cls-8" d="M724.28,129.55l-4.85,1.59a9.18,9.18,0,0,0-6.51-2.69l-6.86-1.79c-1.52-1.07-3-2.15-4.55-3.2-9.08-6.23-18.3-12.89-30-11.13A31.8,31.8,0,0,1,657.23,111c1.82-3.23,4-5.28,7.79-2.51,2.32,1.68,5.05.56,7.56.67a47.76,47.76,0,0,1,31.07,12.46c3.77,3.42,8.42,3.54,13.08,4C719.7,125.86,723.66,124.65,724.28,129.55Z" transform="translate(-65.92 -69.4)"/><path class="cls-10" d="M652.73,341.19c1.24-1.1,3.39-1,3.89-3.07a5.15,5.15,0,0,1,4.46.33c3.12,1.59,6.44,2,9-1.37,3.67.68,8.06,2,4-4.38a4.36,4.36,0,0,1-.71-2.61c.75-5.9.8-5.88-5.59-5.81-1.86,0-3.86.36-5.54-.21-3.06-1-.53-2.26.2-3.37l10.35-.69c4.21-.21,5.49,4.76,9.3,5.26-1.06,6.67-4.16,12.57-6.91,18.61l.2.28-.19-.29a50.49,50.49,0,0,0-17-1.32l-2.81-.32Z" transform="translate(-65.92 -69.4)"/><path class="cls-3" d="M591.22,129.69c4.29-5.56-3.41-7.52-3.52-11.76.47-1.22.95-2.43,1.43-3.65,2.75-1.16,3.38,5.31,6.67,1.92,3.46-3.57,6.77-7.29,10.14-10.94,3-1,5.87-3.6,9.38-1.31,1.59,2,3.08,2,4.47-.21,2.12-.36,3.39,1.12,4.84,2.22-.2,1-.41,1.92-.61,2.88-2.88,1.43-5.39-1-8.06-.82-3.39.28-7.46-2.2-10,2.11-2.24,3.75-5.25,7.05-6.6,11.33C597.49,125,598.29,131.24,591.22,129.69Z" transform="translate(-65.92 -69.4)"/><path class="cls-7" d="M657.23,111a31.8,31.8,0,0,0,14.29,1.35c11.69-1.76,20.91,4.9,30,11.13,1.53,1.05,3,2.13,4.55,3.2-.32,1.38-.64,2.77-1,4.16-1.39-.45-2.79-.88-4.18-1.32-.81-3.09-3.19-4.59-5.86-5.79a6.75,6.75,0,0,0-4.81-3.88c-2.07-1.34-4.17-2.64-6.21-4s-4.34-2.79-6.45.08c-2.45.7-4.79,1.94-7.5,1.33-2.18-.5-4.63-1.88-6.06,1.29-2.63-.39-5.41-1.58-7.49,1.27-1.95.45-3.89.8-5.83,0l3.69-7.57Z" transform="translate(-65.92 -69.4)"/><path class="cls-8" d="M548.37,222.41q-1.38,22.11-2.76,44.24c-.41,6.48-1.72,12.94-.6,19.47l0,2.69c-1.9,3.16-.78,6.73-1.4,10.06a2.45,2.45,0,0,0,.25,3.06l0,.19c-.11,4,3.54,6.67,3.87,10.53L547,313c-6.52-4.52-7.82-11.26-6.28-18.16,2.25-10.08,2-20.32,3-30.46,1.33-13.71.35-27.64,3.63-41.19C547.37,222.88,548,222.68,548.37,222.41Z" transform="translate(-65.92 -69.4)"/><path class="cls-4" d="M701.42,283.53c-.35.85-.71,1.69-1.06,2.54-1.73.78-1.79,2.58-2.51,4-4.13,8.13-6.52,17.09-11.93,24.6l-2.63-1.34.09-.63.16-.16c1.51-1.58,4.91-2.67,1.45-5.55l.39-2.52q.51-2,1-4c1.49-.09,2.06-1.12,2.43-2.36l0-.07,1.34-1.08q1.43-5.59,2.86-11.2l1.56-5.51.18-.08c3,.38,3.07-2,3.65-3.89l3.21-10.4c1,2.05-.27,4.84,2.13,6.42C701.49,275.74,701.47,279.64,701.42,283.53Z" transform="translate(-65.92 -69.4)"/><path class="cls-8" d="M685.92,314.66c5.41-7.51,7.8-16.47,11.93-24.6.72-1.41.78-3.21,2.51-4-.69,7.59-4.14,14.43-6.85,21.27-3.36,8.47-7.44,16.63-9.49,25.59-1.16,5.07-3.68,9.11-8.86,10.95,2.75-6,5.85-11.94,6.91-18.61Q684,320,685.92,314.66Z" transform="translate(-65.92 -69.4)"/><path class="cls-8" d="M701.42,283.53c.05-3.89.07-7.79,2.31-11.23,5.11-9.26,10-18.63,13.32-28.72l8.37-15.49c2.29,3.77-1.56,6-2.42,9-4.36,14.81-12.84,27.93-17.92,42.48C704.43,281.43,703.43,282.92,701.42,283.53Z" transform="translate(-65.92 -69.4)"/><path class="cls-8" d="M552.17,181.7c-2.18,0-5.22-.41-4.08-3,3.39-7.74-.06-15.52,1-23.19l.51-.3c4.56,4.81,6.18,10.61,5.82,17.09C551.72,174.51,552.35,178.24,552.17,181.7Z" transform="translate(-65.92 -69.4)"/><path class="cls-8" d="M589.13,114.28c-.48,1.22-1,2.43-1.43,3.65-3.44,3.64-7,7.19-10.26,11-2,2.33-4.1,3.79-7.27,2.67,5.8-6.86,11.67-13.66,17.38-20.59,2.46-3,5.32-3.49,8.75-2.29l.24.51C594.41,111.4,590,110.28,589.13,114.28Z" transform="translate(-65.92 -69.4)"/><path class="cls-8" d="M598.9,333.86c8.91,1.37,17.9,2.27,26.5,5.2-5.86-.95-11.08,3.34-17.35,1.47C603.84,339.28,600.89,337.57,598.9,333.86Z" transform="translate(-65.92 -69.4)"/><path class="cls-8" d="M654.39,112.18l-3.69,7.57a3.35,3.35,0,0,0-.57,1c-4.63-.45-6,6.79-11.29,4.78a2.48,2.48,0,0,1,0-1.21l1.14-4.12c4.83,1.22,7-2.5,9.74-5.21C651,113.66,651.47,110.89,654.39,112.18Z" transform="translate(-65.92 -69.4)"/><path class="cls-8" d="M550.66,196.63q-.79,10.81-1.58,21.62C544.53,210.67,548.13,203.69,550.66,196.63Z" transform="translate(-65.92 -69.4)"/><path class="cls-8" d="M658.16,342.55a50.49,50.49,0,0,1,17,1.32C671.22,347.18,661.64,346.45,658.16,342.55Z" transform="translate(-65.92 -69.4)"/><path class="cls-8" d="M615.32,104c-3.51-2.29-6.34.27-9.38,1.31-2.3-.51-4,1.12-5.9,1.79l-.32-.44c3.87-7.1,9.55-8.63,15.91-4.29C615.53,102.86,615.42,103.4,615.32,104Z" transform="translate(-65.92 -69.4)"/><path class="cls-7" d="M639.94,120.23l-1.14,4.12a4.57,4.57,0,0,1-1-.58c-.7-4-4.32-4.6-7.16-6.12l-2.17-1.24.21-3.43,3.19.34Z" transform="translate(-65.92 -69.4)"/><path class="cls-8" d="M554,137.77,547.46,146c-2.7-.83-4.49-2.77-2.69-5.2C546.88,137.92,550,135.88,554,137.77Z" transform="translate(-65.92 -69.4)"/><path class="cls-8" d="M631.87,113.32l-3.19-.34c-1.42-1.53-2.22-3.77-4.66-4.14.2-1,.41-1.92.61-2.88C630.57,104.94,632.59,107.78,631.87,113.32Z" transform="translate(-65.92 -69.4)"/><path class="cls-11" d="M592.56,330.16c.6-2.3,1.21-4.59,1.81-6.88,2.17,3.06,4.77,5.91,4.71,10C596.5,333.1,594,332.65,592.56,330.16Z" transform="translate(-65.92 -69.4)"/><path class="cls-6" d="M552.17,181.7c.18-3.46-.45-7.19,3.24-9.44.23.83.45,1.67.68,2.52l-3.33,13.56-.42.18a3.35,3.35,0,0,0-1-.52c.12-.92.25-1.83.37-2.74a3.18,3.18,0,0,0,.26-3.18Z" transform="translate(-65.92 -69.4)"/><path class="cls-4" d="M642.57,340.38c1.79-1.78,3.64-3.85,6.41-2.52,1.29.61-.21,2-.36,3-.12.31-.23.62-.34.93l-2.92-.52-1.42-.16Z" transform="translate(-65.92 -69.4)"/><path class="cls-8" d="M547.23,147.25l2.15,2.19.21,5.74-.51.3C545.92,153.31,546.12,150.38,547.23,147.25Z" transform="translate(-65.92 -69.4)"/><path class="cls-8" d="M648.28,341.77c.11-.31.22-.62.34-.93l4.11.35,2.62,1C652.81,344.91,650.5,344,648.28,341.77Z" transform="translate(-65.92 -69.4)"/><path class="cls-8" d="M550.51,316.35c0,.52-.09,1-.13,1.56-5,1.06-3.59-2.34-3.42-4.88l.77-.38Z" transform="translate(-65.92 -69.4)"/><path class="cls-8" d="M631,340.08c2-1.05,3.91-.05,5.85.28C634.78,342.15,632.77,343.37,631,340.08Z" transform="translate(-65.92 -69.4)"/><path class="cls-8" d="M551.35,188a3.35,3.35,0,0,1,1,.52c-.46,1.78-.91,3.55-1.36,5.33C549.24,191.78,548,189.74,551.35,188Z" transform="translate(-65.92 -69.4)"/><path class="cls-7" d="M615.32,104c.1-.55.21-1.09.31-1.63l4.16,1.42C618.4,105.93,616.91,105.94,615.32,104Z" transform="translate(-65.92 -69.4)"/><path class="cls-8" d="M559.4,135a3.25,3.25,0,0,1-3.67,1.66C556.21,134.49,557.41,133.9,559.4,135Z" transform="translate(-65.92 -69.4)"/><path class="cls-8" d="M596.3,108.69a2.82,2.82,0,0,1,3.42-2.08l.32.44a3.48,3.48,0,0,1-3.5,2.15Z" transform="translate(-65.92 -69.4)"/><path class="cls-8" d="M728.85,134a3.25,3.25,0,0,1-2.25-3.48C728.74,130.83,729.53,132,728.85,134Z" transform="translate(-65.92 -69.4)"/><path class="cls-8" d="M552,182.08a3.18,3.18,0,0,1-.26,3.18A2.12,2.12,0,0,1,552,182.08Z" transform="translate(-65.92 -69.4)"/><path class="cls-8" d="M643.94,341.09l1.42.16C644.82,341.78,644.33,341.8,643.94,341.09Z" transform="translate(-65.92 -69.4)"/><path class="cls-2" d="M711.19,162.91c-1,9.32-2.64,18.51-6.35,27.19-.63,1.49-.59,2.65.83,3.63,2.8,1.93,2.79,5.18,2.19,7.65-1.38,5.71-1,11.55-2,17.25-3.72-.53-6.84-3.54-10.9-2.7-2.2-6.21-9-7.47-12.35-5.61-3.79,2.08-6.45,2.32-10,1.38.09-.47.19-.93.3-1.39l-1-1.69c-.09-1.83-2-3.3-1.17-5.3,2.34-5.49-1.49-3.59-4-3.35.94-3.19,1.9-6.29-3.55-5.47-2.06.31-4.38-.44-6.28.18-5.9,1.95-2.31-2.07-2.5-3.71,11.28,1,11.77.75,11.92-6.91,2.36.64,5.33-1.9,7.17,1.39-.29,1.72-1.67,4.17,1.29,4.39a5.64,5.64,0,0,0,5.49-3.58c1.19-2.9-1-3.62-3.18-4.1,1.2-2.74.27-7.64,5.94-5.82-.13,2,.25,3.7,2.36,1.42a46.8,46.8,0,0,1,8.82-8c.14,4,4,7.76-1.18,10.81-1.1.65-.91,2-.12,3.11a3.86,3.86,0,0,0,3.66,1.62c1.85-.17,2.24-1.6,2-3.06-.62-3.65,1.16-6.87,1.7-10.3h0c3.8.33,2.24,5,5.37,6.87,1.08-5.85,2-11.12,3-16.38Zm-17.62,33c0,3.44.53,6.63,3.77,8.28,1.32.67,2.21-.49,2.33-1.73C700.05,198.34,696.41,197.56,693.57,196Z" transform="translate(-65.92 -69.4)"/><path class="cls-2" d="M712.92,128.45a9.18,9.18,0,0,1,6.51,2.69c-.13,1.47,0,2.92,1.57,3.54,5.15,2,5,5.75,3.44,10-1.19,3.23,5.3,2.21,3.25,5.9,1.33.64,5.45-1.14,2.61,3.1-2.31,3.45-3.76-.57-5.89-.66-1,3.43.82,4.85,3.67,5.43s4.87,1.78,3.7,5.23c-2.66.48-4,2.63-5.51,4.48l-1.36-1.3c2.63-3.09.82-5-1.81-6.61-1.15-.7-3.27-1.09-2.67-2.64,2.57-6.57-3.32-7.44-6.48-10.17.2-3.45,6-7.34-.79-10.26C710.2,134.36,710.34,131.44,712.92,128.45Z" transform="translate(-65.92 -69.4)"/><path class="cls-9" d="M719.34,182.79c-1-2.16-1.08-4.43,1.38-5.24,2.23-.73,1.84,2.43,2.71,3,4.33,2.65,9.31,4.32,12,9.11l.93,1.66c1.37,1.41.74,3,.43,4.57-.93,2.57-2,5-4.71,6.24-2.65-3-5.3-4.4-8.45-.47-.5.62-2.13.32-3.24.45l.3-2.72C726.51,191.77,726.17,187.62,719.34,182.79Z" transform="translate(-65.92 -69.4)"/><path class="cls-10" d="M720.39,202.07c1.11-.13,2.74.17,3.24-.45,3.15-3.93,5.8-2.57,8.45.47a3.08,3.08,0,0,0,.72,3.09,2.91,2.91,0,0,0,.92,3.2q-2.75,5.26-5.51,10.52c0-2.57-.43-4.85-3.26-5.8-.35-1-.84-1.14-1.49-.23h-.05c-3-.8-3.93,2.75-6.41,3Z" transform="translate(-65.92 -69.4)"/><path class="cls-6" d="M714,147.45c3.16,2.73,9,3.6,6.48,10.17-.6,1.55,1.52,1.94,2.67,2.64,2.63,1.6,4.44,3.52,1.81,6.61-3.55-2.22-6.28-5.6-10.77-6.53-2.84-.58-2.21,1.48-2.95,2.58l-2.52-.51.63-3,1.85-12.62Z" transform="translate(-65.92 -69.4)"/><path class="cls-2" d="M719.34,182.79c6.83,4.83,7.17,9,1.35,16.56-3.59-2.36-5-5.42-2.42-9.25C719.89,187.72,718.41,185.13,719.34,182.79Z" transform="translate(-65.92 -69.4)"/><path class="cls-4" d="M695,215.93c4.06-.84,7.18,2.17,10.9,2.7l4.59-.16,2.46,2.23c-7.28.61-14.59,1.53-21.58-1.69C691.65,216.93,694,217.21,695,215.93Z" transform="translate(-65.92 -69.4)"/><path class="cls-12" d="M717,215.9c2.48-.27,3.42-3.82,6.41-3-2.35,4.1-3.3,9.25-8.51,11.16l-.72-3,1.29-3.81Z" transform="translate(-65.92 -69.4)"/><path class="cls-2" d="M715.47,217.18,714.18,221a4.2,4.2,0,0,1-1.26-.29l-2.46-2.23a6.84,6.84,0,0,1,.28-1.36c1.12-2.55.3-7.53,4.21-6.8S713.18,214.93,715.47,217.18Z" transform="translate(-65.92 -69.4)"/><path class="cls-9" d="M726.27,168.17c1.55-1.85,2.85-4,5.51-4.48,1.91,2.85,2,6.1,2,9.35l-.4.24Z" transform="translate(-65.92 -69.4)"/><path class="cls-9" d="M733.82,173l.36,1-.75-.8Z" transform="translate(-65.92 -69.4)"/><path class="cls-6" d="M609.45,315.65c2-5.22-.79-10.52.26-15.82.36-1.83-.64-3.56-3.52-2.74-2.66.75-5.54.72-8.33,1l-.07-.12c1.81-3.3-1.32-4.47-2.75-6.37a17.92,17.92,0,0,0,9.39-2.1c1.84.34,3-.32,3.38-2.22l0,0c2.05.5,4.11,1.82,6.12-.1,1.91.51,4.09.48,5.27,2.52-1.59,2.77,1.72,6.08-.81,8.65-3.61,3.67-3.87,8.11-3.42,12.81l1.06,1.66h0l-.6,1.37-1.44,1-1.87,1.14a8,8,0,0,1-1.33-.38A4.82,4.82,0,0,1,609.45,315.65Z" transform="translate(-65.92 -69.4)"/><path class="cls-12" d="M610.79,316a7,7,0,0,0,1.34.37c.72-.21,2.5,1.32,1.86-1.13l1.44-1,2.47-.06A1.59,1.59,0,0,0,616,312.9h0c.27-.95-.32-1.36-1.06-1.66-.45-4.7-.19-9.14,3.42-12.81,2.53-2.57-.78-5.88.81-8.65l3.94-.12c.38,2.07,1.38,3.6,3.57,4.11l0,0c-.31,2.27-2,4.85,1.36,6.32.35,2.1,2.29,3.85,1.34,6.23-2.84-.39-3.63-5.7-6.62-3.83-2.31,1.44-4.69,4.58-3,8.31-.47,3.71,3.64,6.89,1.25,10.82C617.7,319.57,611.82,322.23,610.79,316Z" transform="translate(-65.92 -69.4)"/><path class="cls-2" d="M631,322.59c1.51,2.28,2.95,4.77,5.61,5.77s2.59,2.8,2,5c-3-.28-6.8-3.34-7.94,2.42-.48,1.09-1.79,2.67-2.36,1.92-4-5.18-10.23-1-15-3.86,1.34-4.92,10.39.06,9.44-7.36,3.41.38,4.43-2.19,5.64-4.55Z" transform="translate(-65.92 -69.4)"/><path class="cls-6" d="M597.86,298.13c-.35,1.57-1.19,3.47.88,4.27,2.86,1.12,5.48,2.19,3.63,5.91-1.59,3.19-4.54,2.85-7.33,2.09-3.47-.94-4.95-3.4-4.39-6.91.38-2.3,1.07-4.56,1.62-6.83l.1,0,5.42,1.39Z" transform="translate(-65.92 -69.4)"/><path class="cls-6" d="M582.3,301.47q2,7.11,3.89,14.2l-4.64,1.83-1.62-.71c.13-2.93.4-5.87.37-8.8s-.84-5.08-4.48-3.88l-2.94-1a7.46,7.46,0,0,1,.49-6.9l4.49-.42C578.23,298.54,579,301,582.3,301.47Z" transform="translate(-65.92 -69.4)"/><path class="cls-3" d="M610.79,316c1,6.23,6.91,3.57,10.24,5.58-.93,2.78-3.14,1.92-5.08,1.78-4.69-2.4-10.85.88-14.93-3.87,1.73-3.64,4.5-5,8.43-3.84A4.82,4.82,0,0,0,610.79,316Z" transform="translate(-65.92 -69.4)"/><path class="cls-2" d="M582.3,301.47c-3.33-.46-4.07-2.93-4.44-5.7,3.23-4.63,7.76-6,13.15-5.23-1,2.34,2.13,3.78,1.36,6.08l-.1,0-1.29-.37c-2-.32-3.89-1.67-5.85,0-.13.44-.26.88-.4,1.32a2.9,2.9,0,0,0-2.08,2.54C582.54,300.58,582.43,301,582.3,301.47Z" transform="translate(-65.92 -69.4)"/><path class="cls-10" d="M619.78,310.76c-1.73-3.73.65-6.87,3-8.31,3-1.87,3.78,3.44,6.62,3.83q.71,3,1.4,6h0c-1.82.05-2.8-2.91-4.78-1.52-.52.37-.07,2.11-.07,3.23l0,0Z" transform="translate(-65.92 -69.4)"/><path class="cls-11" d="M581.55,317.5l4.64-1.83c2.15,2.35,4.65,3.48,7.82,2.19l-.6,3.89c-3-.78-5.65-1.9-9.24-.36-3.24,1.38-7.83,2.39-10.93-1.63C576,319,579.5,320.91,581.55,317.5Z" transform="translate(-65.92 -69.4)"/><path class="cls-12" d="M601,319.49c4.08,4.75,10.24,1.47,14.93,3.87-4.41,8-9.52.72-14.21.44-3.5-.21-4-3.29-2.93-6.36l.58.12.57.19Z" transform="translate(-65.92 -69.4)"/><path class="cls-10" d="M631,322.59l-2.58-.7c1.68-3.81-.07-4.59-3.46-3.9.34-1.33.69-2.66,1-4l0,0c2,.51,4,1,4.85-1.71h0C635.18,315.65,631,319.16,631,322.59Z" transform="translate(-65.92 -69.4)"/><path class="cls-6" d="M624.93,318c3.39-.69,5.14.09,3.46,3.9-1.2,2.36-2.22,4.93-5.63,4.55C623.48,323.63,624.21,320.81,624.93,318Z" transform="translate(-65.92 -69.4)"/><path class="cls-9" d="M630.64,335.74c1.14-5.76,5-2.7,7.94-2.42a2.77,2.77,0,0,1,.69,3C636.38,336.35,633.45,336.87,630.64,335.74Z" transform="translate(-65.92 -69.4)"/><path class="cls-6" d="M594.62,316.31c-.78-.76-2-1.69-1-2.71a2.05,2.05,0,0,1,3,.6c.6,1.33-1.51,1.13-1.91,2.1Z" transform="translate(-65.92 -69.4)"/><path class="cls-6" d="M585.13,296.27c2-1.65,3.9-.3,5.85,0C589,297.92,587.08,296.54,585.13,296.27Z" transform="translate(-65.92 -69.4)"/><path class="cls-7" d="M593.41,321.75l.6-3.89c.2-.52.4-1,.61-1.55h0c1.74,1.8-.09,3.64.07,5.46A3.9,3.9,0,0,1,593.41,321.75Z" transform="translate(-65.92 -69.4)"/><path class="cls-6" d="M582.65,300.13a2.9,2.9,0,0,1,2.08-2.54A3.08,3.08,0,0,1,582.65,300.13Z" transform="translate(-65.92 -69.4)"/><path class="cls-6" d="M600,317.75l-.57-.19-.58-.12C599.48,316.48,599.86,316.57,600,317.75Z" transform="translate(-65.92 -69.4)"/><path class="cls-13" d="M570.29,291c-1.75-1.66-3.17-2.44-4.78.42-1.34,2.36-3.1,4.78-6.55,4.05-.12-1.4-.56-2.87-.3-4.2,3.32-17.31,6.75-34.6,10.15-51.9l9.62,2.45c5,4.52,11.83,3.69,17.6,6l2.63.73c-2.57,5.56-1,8.86,6.13,11.6,2.83,1.08,6.74,3.1,5,5.15-3.4,4.11-3.1,11.54-9.77,12.5-4.83.7-6,3.46-6.32,7.47a27.11,27.11,0,0,1-11.33-1.49l-.28-1.91L581,283.48l-4-1c-.28-.25-.79-.73-.8-.72-.83.84-.24,1.43.38,2a8.75,8.75,0,0,0-2.71,5.29c-.09.43-.19.85-.29,1.28ZM587,265.78c-.69-1.63-2.26-1.82-3.7-2.22l-1.06.86.93.54.47.2.51.11c0,1.91,1.53,1.86,2.72,1.82C587.66,267.07,587.57,266.3,587,265.78Zm-11.65,5.07c.21-.84.75-1.94-.31-2.34a2.56,2.56,0,0,0-2.37.56,2.14,2.14,0,0,0,.7,3C574.38,272.62,575,271.73,575.38,270.85Z" transform="translate(-65.92 -69.4)"/><path class="cls-11" d="M568.81,239.4c-3.4,17.3-6.83,34.59-10.15,51.9-.26,1.33.18,2.8.3,4.2-4.32,4.91-2.57,12.34-7.12,17.15q.57-3.57,1.15-7.16a33.72,33.72,0,0,0,1.57-4.67c3.88-21.12,8.08-42.18,11.37-63.39,1.54-10,4.52-19.77,3.94-30,2-4.81.43-10.87,5.08-14.78l5.43,1.73c1.7,5.09,7.1,3.09,10.28,5.35-5.63,2.12-10.76-3.71-16.82-1.42,3.92,4.82,9.32,5,14.16,6.47,3.31,1,7.16,1.4,7.17,6.21l-8.07-2.06-.3,1.36L597.57,213c6.4,4.79,14.48,4.41,21.59,7l-.66,2.54c-1.29,0-2.67-.5-3.69.77l-3.17-1c-3.86-.54-7.52-2.89-11.61-1.25-3.42-2.55-5.35-7.53-10.85-6.69l-2.89-.84c-3.81,1.54-3.48,4.53-2.68,7.68l-.8,2.71c-3.71-.82-5-3-4-6.7.65-2.39-.77-3.37-2.86-3.86-2.31-.55-3.71.42-4,2.62C570.82,223.83,569.84,231.62,568.81,239.4Z" transform="translate(-65.92 -69.4)"/><path class="cls-10" d="M553,305.49q-.59,3.58-1.15,7.16c-.44,1.24-.88,2.47-1.33,3.7l-2.78-3.7c-.33-3.86-4-6.5-3.87-10.53,2.38.58,4.19-1.3,6.38-1.49Z" transform="translate(-65.92 -69.4)"/><path class="cls-11" d="M570.29,291l3.25-.65c1.71,2-.14,3.87-.17,5.81a7.46,7.46,0,0,0-.49,6.9l-1.52,1.32-.11,0c-2.69-.52-4-1.86-3.15-4.8S569.57,293.91,570.29,291Z" transform="translate(-65.92 -69.4)"/><path class="cls-14" d="M572.2,319.12c-7.14-3.07-1.39-7.9-1.63-11.91a8.38,8.38,0,0,0,1.2.21c1.53,2.43-.8,5.37,1,7.76l-.09.05Z" transform="translate(-65.92 -69.4)"/><path class="cls-4" d="M572.2,319.12l.51-3.89c2.16,1.64,4.44,2.76,7.22,1.56l1.62.71c-2,3.41-5.55,1.46-8.31,2.26A4.62,4.62,0,0,0,572.2,319.12Z" transform="translate(-65.92 -69.4)"/><path class="cls-11" d="M571.77,307.42a8.38,8.38,0,0,1-1.2-.21c.23-.92.46-1.83.68-2.75l.11,0C572.42,305.29,572.16,306.34,571.77,307.42Z" transform="translate(-65.92 -69.4)"/><path class="cls-5" d="M593.74,285.26c.3-4,1.49-6.77,6.32-7.47,6.67-1,6.37-8.39,9.77-12.5,1.7-2.05-2.21-4.07-5-5.15-7.15-2.74-8.7-6-6.13-11.6l.07,0c5,1.19,10.11,3.33,15.14,3.28,5.34-.05,4.86,2.13,3.14,5-2.63,4.44-.86,5.35,3.29,5a7.8,7.8,0,0,0,1,.13l1.31,1.26,4,1.84c.31.83.61,1.66.91,2.49l.52.35c.66,2.78-2.32,5.31-1,8.47,2.78-1.29,1.37-4.68,3.81-5.62,1.46,1.59.37,5,3.67,5.27,3.79.26,1.62-2.94,2.4-4.44.57-1.08,1.54-.77,2.32-1.12,3.78-1.72,5.65-4.59,5-8.85,3.63-1.18,7-3.19,11.22-1.67s8.48,2.27,12.73,3.36v0c-1.1,6.5,1.28,9.67,7.62,10,2.09.11,4.36-.52,6.25.1,4.63,1.53,9.52-.6,14,1.39.91,2.13-1.06,3.55-1.34,5.39l-.18.08c-2.2-.78-4.45-1.43-6.57-2.38-1.5-.67-3-2.09-4.13.11s.33,3.52,2.22,4.43l6.92,3.35q-1.44,5.61-2.86,11.2L688.8,298l0,.07c-3.87-1.2-7-3.56-10.3-5.85-3.65-2.53-7.93-6.14-12.84-1.72h0c-1.16-.2-2.28-.28-2.76,1.16l-1.77,3.19a2.28,2.28,0,0,0-1.16-.06l-9.44-2.37L640.88,290c-1.12-3.19-3.45-1.53-5.41-1.35-2.85-1.71-5.25,0-7.74,1-1.53-.39-3.06-1.4-4.61-.05l-3.94.12c-1.18-2-3.36-2-5.27-2.52-2.07-1.51-4.1-.85-6.12.1l0,0-2.77-.64c-2.33-.67-4.57-1-6.15,1.48l.06,0C597.14,287.32,594.69,287.65,593.74,285.26Z" transform="translate(-65.92 -69.4)"/><path class="cls-2" d="M662.42,320.7c-.73,1.11-3.26,2.35-.2,3.37,1.68.57,3.68.23,5.54.21,6.39-.07,6.34-.09,5.59,5.81a4.36,4.36,0,0,0,.71,2.61c4.05,6.42-.34,5.06-4,4.38-.08-2.19,1.9-4.32.25-6.69l-6.57,2c.95-5.4-4.81-5.26-7-8.12-.58-.75-1.47,1.73-2,2.92-4.46-2.95-9.54-4.09-14.68-5.08.53-2.31,1.07-4.62,1.6-6.94Z" transform="translate(-65.92 -69.4)"/><path class="cls-2" d="M660,294.82a2.28,2.28,0,0,1,1.16.06c2.09.48,3.42-1.36,5.18-1.71,3.05-.61,6.29-1.11,6.62,3.54-2.3,3-6.17-3.3-7.07.42-1.44,5.93-5.27,4.3-8.87,4.33-4-1.58-6.45.46-8.28,3.77h0c-2.33-.83-4.1.95-6.17,1.33-.77-3.12-3.8-5.73-2.08-9.4,3.15-3.43,7.61-2.3,10.49-1.08C654.81,297.7,657.15,296.38,660,294.82Zm-9.86,4.86c-.55.26-1.69-1.07-1.69.64l1.68-.65.45-.46Z" transform="translate(-65.92 -69.4)"/><path class="cls-9" d="M663.73,332.41l6.57-2c1.65,2.37-.33,4.5-.25,6.69-2.53,3.38-5.85,3-9,1.37a5.15,5.15,0,0,0-4.46-.33c-2.92-1.87-3.92-3.87.61-4.18C659.59,333.78,661.56,332.84,663.73,332.41Z" transform="translate(-65.92 -69.4)"/><path class="cls-10" d="M642.57,306.56c2.07-.38,3.84-2.16,6.17-1.33-.34,4.13-4.21,4.63-6.78,6.34-2,1.35-3.25,2.18-.25,3.62-.53,2.32-1.07,4.63-1.6,6.94l-.39,1.39c-3.37-.87-4.67-1.25-3.88-6.29C636.69,311.83,638.58,309,642.57,306.56Z" transform="translate(-65.92 -69.4)"/><path class="cls-4" d="M660,294.82c-2.82,1.56-5.16,2.88-9,1.26-2.88-1.22-7.34-2.35-10.49,1.08-3.42-1.8-6.22-4-5-8.49,2-.18,4.29-1.84,5.41,1.35-1.06.27-3.75.46-1.2,1.85a13.15,13.15,0,0,0,10.85.58Z" transform="translate(-65.92 -69.4)"/><path class="cls-9" d="M639.72,323.52l.39-1.39c5.14,1,10.22,2.13,14.68,5.08C650.1,332.3,644.51,330.93,639.72,323.52Z" transform="translate(-65.92 -69.4)"/><path class="cls-2" d="M628,300.05c-3.39-1.47-1.67-4.05-1.36-6.32l5.51-.54C632.83,296.76,628.17,297.07,628,300.05Z" transform="translate(-65.92 -69.4)"/><path class="cls-2" d="M623.12,289.65c1.55-1.35,3.08-.34,4.61.05-.35,1.35-.7,2.71-1,4.06C624.5,293.25,623.5,291.72,623.12,289.65Z" transform="translate(-65.92 -69.4)"/><path class="cls-9" d="M553,305.49l-2.75-4.86,0-5.9c.38-5,5.39-10.17-.56-14.94,5.22-2.32,1.48-5.42.72-8.26,4.61-.52,3.32-4,3.48-6.84l.12-1.33a2.83,2.83,0,0,0-.52-3.1,3,3,0,0,1,.22-1.25c2.4-1.38,2.43-3.38,1.49-5.64-.39-4.34,3-8.25,1.49-12.72.69-4.22,4.25-8.5.73-12.65-2.25-2.66-2.22-3.76,1.06-4.8,1.3-.41,2-2,1.39-2.87-3.88-5.52,1.08-10.06,1.44-15.08,1.06-4.33-.17-7-5.1-6.92-4.72-2.09-.54-7.28-3.47-10l3.33-13.56,2.28,3.1c0,.86.22,1.26,1.09.68l1.58.37,6.32,8.81a7.74,7.74,0,0,0,1.25.64c3.39,3.48,3.07,7.38,1.69,11.66-.75,2.31-2.34,4.82-.43,7.38.58,10.24-2.4,20.06-3.94,30-3.29,21.21-7.49,42.27-11.37,63.39A33.72,33.72,0,0,1,553,305.49Z" transform="translate(-65.92 -69.4)"/><path class="cls-3" d="M561.33,205.25c-.36,5-5.32,9.56-1.44,15.08.57.82-.09,2.46-1.39,2.87-3.28,1-3.31,2.14-1.06,4.8,3.52,4.15,0,8.43-.73,12.65L553,238.27c-.79-10.7.94-21.19,2.6-31.69C557.94,207.87,559.61,206.47,561.33,205.25Z" transform="translate(-65.92 -69.4)"/><path class="cls-7" d="M553,238.27l3.67,2.38c1.5,4.47-1.88,8.38-1.49,12.72-.5,1.88-1,3.76-1.49,5.64a3,3,0,0,0-.22,1.25c-1.18,1.26-2.24,2.5.52,3.1,0,.44-.08.89-.13,1.33a3.31,3.31,0,0,1-3.43.81,17.25,17.25,0,0,1-.22-8.85c1.64-1.1,1.86-2.56,1-4.27Q552.16,245.33,553,238.27Z" transform="translate(-65.92 -69.4)"/><path class="cls-12" d="M549.71,279.79c5.95,4.77.94,9.94.56,14.94-2.13-1.64-2.45-4.9-5.29-5.92l0-2.69C548.78,285.65,545.4,279.86,549.71,279.79Z" transform="translate(-65.92 -69.4)"/><path class="cls-7" d="M561.33,205.25c-1.72,1.22-3.39,2.62-5.69,1.33-.4-2.8-.68-5.58.59-8.25C561.16,198.26,562.39,200.92,561.33,205.25Z" transform="translate(-65.92 -69.4)"/><path class="cls-3" d="M550.47,265.5a3.31,3.31,0,0,0,3.43-.81c-.15,2.79,1.14,6.32-3.47,6.84C548.7,269.51,550,267.5,550.47,265.5Z" transform="translate(-65.92 -69.4)"/><path class="cls-3" d="M551.29,252.38c.82,1.71.6,3.17-1,4.27C550.6,255.23,550.94,253.81,551.29,252.38Z" transform="translate(-65.92 -69.4)"/><path class="cls-9" d="M591.22,129.69c7.07,1.55,6.27-4.65,8.11-8.24,4.58-.33,5.3,4.47,8.3,6.25-.53,2.77.58,4.54,3.29,5.26,1.94.52,3.6,1.23,3.27,3.72-4.58-2.53-9.45-2.48-12.35,1.78-3.83,5.62-7.2,4.51-11.32.06a14.53,14.53,0,0,1-6.23,8.74c-6.39,4.54-16.26,3.22-20,12-2.84-.36-3.52-2.43-4.25-4.82-.93-3-2.17-1.1-3.21.13-1.85-4-3.49-7.79,3.33-8.31,2.25-.17,2.09-2.17,2.48-3.71l.06,0c2.57.56,6.27,3.21,5.31-2.84l2.6.25c2,1,4,1.82,4.75-1.47l.09,0c6.54.34,10.93-3.57,15.22-7.68A8.34,8.34,0,0,0,591.22,129.69Z" transform="translate(-65.92 -69.4)"/><path class="cls-3" d="M562.68,142.53c-.39,1.54-.23,3.54-2.48,3.71-6.82.52-5.18,4.35-3.33,8.3-1,6,5.63,9.06,5.79,14.63-1.46,1.92-3.48-2.47-4.58.29-.74,1.83,1.2,2.8,2.4,3.8A22.08,22.08,0,0,0,563.4,175L561,178.93l-1.58-.37a6.42,6.42,0,0,0-1.09-.68l-2.28-3.1c-.23-.85-.45-1.69-.68-2.52.36-6.47-1.26-12.27-5.82-17.08l-.21-5.74C551.48,142.65,555.85,140.23,562.68,142.53Z" transform="translate(-65.92 -69.4)"/><path class="cls-3" d="M590.71,130.73c-4.29,4.11-8.68,8-15.22,7.68C579.34,133.43,584.28,130.61,590.71,130.73Z" transform="translate(-65.92 -69.4)"/><path class="cls-3" d="M568.05,139.67c1,6.05-2.74,3.4-5.31,2.84C563.38,139.44,565.13,138.46,568.05,139.67Z" transform="translate(-65.92 -69.4)"/><path class="cls-3" d="M575.4,138.45c-.72,3.29-2.72,2.42-4.75,1.47C571.69,137.65,573.5,137.91,575.4,138.45Z" transform="translate(-65.92 -69.4)"/><path class="cls-5" d="M712.92,220.7a4.2,4.2,0,0,0,1.26.29l.72,3a3.6,3.6,0,0,0-.69,1.22c-1.57,1-1.46,2.82-2.26,4.15-4.45,7.45-4.17,16.61-8.82,24-.16-2.4,2.5-5-.23-7.17s-3.91,1.37-5.9,2c-1,.3-2.27-.27-3.42-.45l2.08-4.09c.86.12,1.89.33,1.82-1,0-.3-1-.57-1.52-.85q1.54-8.27-6.86-8.21c-1.8-2.68-5-1.74-7.32-2.84-1.25-.59-1.81-3-3.78-1.5-2.43,1.83.67,3.11.66,4.73-3,.54-5.76-.26-8.57-1,1.25-4-1.19-4.9-4.41-5.21a240.89,240.89,0,0,1-29.72-5c-2.7-3.48-7.11-2.55-10.57-4.08,6-4.59.54-6.57-2.09-9.2,2.92.69,5.82,1.53,8.78,2,6.45,1.08,12.63,4.72,19.49,2.21l1.45,0c12.46,4.08,25.46,4.12,38.32,5.27C698.33,222.23,705.64,221.31,712.92,220.7Zm-77.16-3.64c-.54-.71-.8-1.41-1.25-1.56s-1.54-.1-1.75.24c-.6.94,0,1.68,1,1.87C634.26,217.71,634.86,217.33,635.76,217.06Z" transform="translate(-65.92 -69.4)"/><path class="cls-6" d="M717.05,243.58c-3.33,10.09-8.21,19.46-13.32,28.72-2.4-1.58-1.13-4.37-2.13-6.42a9,9,0,0,1-.15-1.27q.79-2.78,1.6-5.54c3.82-4.67,3-11.31,6.84-16Z" transform="translate(-65.92 -69.4)"/><path class="cls-15" d="M709.89,243.09c-3.83,4.67-3,11.31-6.85,16-1.52-1.93-.3-3.81.09-5.7,4.65-7.35,4.37-16.51,8.82-24,.8-1.33.69-3.2,2.26-4.15.07.53.15,1.05.22,1.58q-1.92,6.84-3.83,13.69Z" transform="translate(-65.92 -69.4)"/><path class="cls-6" d="M710.6,240.53q1.9-6.84,3.83-13.69C714.83,231.88,714,236.57,710.6,240.53Z" transform="translate(-65.92 -69.4)"/><path class="cls-12" d="M723.46,212.87c.65-.91,1.14-.77,1.49.23Z" transform="translate(-65.92 -69.4)"/><path class="cls-3" d="M711.15,146.81q-.93,6.31-1.85,12.62-.67,0-1.35-.12c-2.86-.42-5.55-2.72-8.63-.83-.41-.55-.81-1.11-1.21-1.67.31-.91.62-1.82.94-2.74l2.53-3.72c7.37.45,2.66-8.46,7.87-10.3,1.28-.44.53-4.74-2.5-5.91l-.9-1.81c1.33-.54.69-1-.07-1.4a3,3,0,0,1-.89-.11c.33-1.39.65-2.78,1-4.16l6.86,1.79c-2.58,3-2.72,5.91.24,8.74Z" transform="translate(-65.92 -69.4)"/><path class="cls-9" d="M641.71,315.19c-3-1.44-1.77-2.27.25-3.62,2.57-1.71,6.44-2.21,6.78-6.34h0c3.87,1.18,7.32,1.42,8.28-3.77,3.6,0,7.43,1.6,8.87-4.33.9-3.72,4.77,2.62,7.07-.42l2.49.73c1.58,4.81,7.2,3.88,10,7L685,307c-.48,1.85-1,3.7-1.45,5.55l-.16.16c-4.69-1.44-7.72.71-10,4.6l-.66,2.72-10.35.69Z" transform="translate(-65.92 -69.4)"/><path class="cls-15" d="M672.77,320l.66-2.72c3.9.2,7.45-.47,9.86-4l2.63,1.34Q684,320,682.07,325.27C678.26,324.77,677,319.8,672.77,320Z" transform="translate(-65.92 -69.4)"/><path class="cls-2" d="M607.63,127.7c-3-1.78-3.72-6.58-8.3-6.25,1.35-4.27,4.36-7.57,6.6-11.32,2.57-4.31,6.64-1.83,10-2.11,2.67-.22,5.18,2.25,8.06.82,2.44.37,3.24,2.61,4.66,4.14l-.21,3.44a4,4,0,0,0-2.69,2.76c-6.15-3-9.2-1.88-9.56,3.42l-3.78,3.45C610.49,125.61,608.48,125,607.63,127.7Z" transform="translate(-65.92 -69.4)"/><path class="cls-7" d="M596.54,109.2a3.48,3.48,0,0,0,3.5-2.15c1.94-.67,3.6-2.3,5.9-1.79-3.37,3.65-6.68,7.37-10.14,10.94-3.29,3.39-3.92-3.08-6.67-1.92C590,110.28,594.41,111.4,596.54,109.2Z" transform="translate(-65.92 -69.4)"/><path class="cls-2" d="M664,118.51c1.43-3.17,3.88-1.79,6.06-1.29,2.71.61,5-.63,7.5-1.33,2,2.24,3.68,4.73,7.06,5.24s3.39,2.84,2.26,5.24c-1.41,3-2.93,1.51-4.83.12-4.31-3.15-9.5-1-10.83,4.31-2.74,1.36-2.2,4.3-3.13,6.53-.15.18-.31.35-.46.52l.48-.48,5.12,2.77c-2.27,4.21-4.55,7.27-10,3.48-2.27-1.58-6.48-3.15-7.55,2.29-.23.87-.47,1.74-.7,2.61-6.07,3.26-6.07,3.26-9.83-1-.13-4.45,6.4-5.35,5.44-10.24-.14-4.54,3.83-5.6,6.63-7.27,3.65-2.16,7.1-3.86,4.78-9.07C661.8,120.5,663.3,119.33,664,118.51Z" transform="translate(-65.92 -69.4)"/><path class="cls-10" d="M671.24,130.8c1.33-5.27,6.52-7.46,10.83-4.31,1.9,1.39,3.42,2.9,4.83-.12,1.13-2.4,1-4.76-2.26-5.24s-5.08-3-7.06-5.24c2.11-2.87,4.26-1.56,6.45-.08s4.14,2.68,6.21,4a11.19,11.19,0,0,0,1.66,7.43c3.72,6.53,2.61,9-5.23,11.93-1.37-2.45-3.89-3.35-6.19-4.52l-2.76-.66Z" transform="translate(-65.92 -69.4)"/><path class="cls-2" d="M686.67,139.19c7.84-2.89,9-5.4,5.23-11.93a11.19,11.19,0,0,1-1.66-7.43,6.75,6.75,0,0,1,4.81,3.88c-.08,4,1.17,6.63,5.86,5.79,1.39.44,2.79.87,4.18,1.32a3,3,0,0,0,.89.11,5,5,0,0,1,.07,1.4l.9,1.81c-2.33,4-5.64-.1-10.24.87,8.15,4.82.84,8.53,1,12.79-3.67,0-2.85-6.65-6.21-5.24-4.15,1.75,1.35,5.8-.59,8.68a2.06,2.06,0,0,0-.16.68h0C686.71,148.54,687.63,143.56,686.67,139.19Z" transform="translate(-65.92 -69.4)"/><path class="cls-10" d="M664,118.51c-.72.82-2.22,2-2,2.41,2.32,5.21-1.13,6.91-4.78,9.07-2.8,1.67-6.77,2.73-6.63,7.27-2.29-.39-2.19-2.79-3.41-4.07.76-3.8,2-7.22,6.31-8.35,2.57-.66,2.4-3.15,3.06-5.06C658.61,116.93,661.39,118.12,664,118.51Z" transform="translate(-65.92 -69.4)"/><path class="cls-3" d="M656.53,119.78c-.66,1.91-.49,4.4-3.06,5.06-4.35,1.13-5.55,4.55-6.31,8.35l-2.76-.64c-1.51-2.35-2.32-.94-3.1.58l-.25.15-2.3-.59.82-5.19c7,3.24,8.57-2.07,10.56-6.72a3.35,3.35,0,0,1,.57-1C652.64,120.58,654.58,120.23,656.53,119.78Z" transform="translate(-65.92 -69.4)"/><path class="cls-10" d="M700.91,129.5c-4.69.84-5.94-1.8-5.86-5.79C697.72,124.91,700.1,126.41,700.91,129.5Z" transform="translate(-65.92 -69.4)"/><path class="cls-6" d="M545,288.81c2.84,1,3.16,4.28,5.29,5.92l0,5.9c-2.19.19-4,2.07-6.38,1.49l0-.19a2.57,2.57,0,0,0-.25-3.06C544.2,295.54,543.08,292,545,288.81Z" transform="translate(-65.92 -69.4)"/><path class="cls-10" d="M543.58,298.87a2.57,2.57,0,0,1,.25,3.06A2.45,2.45,0,0,1,543.58,298.87Z" transform="translate(-65.92 -69.4)"/><path class="cls-15" d="M665.69,290.54c4.91-4.42,9.19-.81,12.84,1.72,3.31,2.29,6.43,4.65,10.3,5.85-.37,1.24-.94,2.27-2.43,2.35l-8.86-4.24C675.11,291.16,670.81,290,665.69,290.54Z" transform="translate(-65.92 -69.4)"/><path class="cls-14" d="M693,285.76l-6.92-3.35c-1.89-.91-3.26-2.31-2.22-4.43s2.63-.78,4.13-.11c2.12.95,4.37,1.6,6.57,2.38Z" transform="translate(-65.92 -69.4)"/><path class="cls-2" d="M677.54,296.22l8.86,4.24-1,4c-2.76-3.14-8.38-2.21-10-7Z" transform="translate(-65.92 -69.4)"/><path class="cls-6" d="M683.29,313.32c-2.41,3.5-6,4.17-9.86,4,2.23-3.89,5.26-6,10-4.6Z" transform="translate(-65.92 -69.4)"/><path class="cls-15" d="M701.45,264.61a9,9,0,0,0,.15,1.27l-3.21,10.4c-.58,1.9-.65,4.27-3.65,3.89.28-1.84,2.25-3.26,1.34-5.39C699.61,272.31,697.9,267.07,701.45,264.61Z" transform="translate(-65.92 -69.4)"/><path class="cls-6" d="M683.54,312.53c.48-1.85,1-3.7,1.45-5.55C688.45,309.86,685.05,311,683.54,312.53Z" transform="translate(-65.92 -69.4)"/><path class="cls-15" d="M688.8,298l1.34-1.08Z" transform="translate(-65.92 -69.4)"/><path class="cls-9" d="M639.57,127.5q-.42,2.59-.82,5.2c-.23.88-.45,1.76-.67,2.64l-.25.14c-4.87-5.7-11-6.19-16.16-1.26-3-2.85-7.3-4.16-9.23-8.17l3.78-3.45c3.9.86,8.39,3.37,9.56-3.42a4,4,0,0,1,2.69-2.76l2.17,1.23c.46,4.29,4.19,4.77,7.16,6.12a4.57,4.57,0,0,0,1,.58,2.48,2.48,0,0,0,0,1.21C639.08,126.21,639.33,126.86,639.57,127.5Z" transform="translate(-65.92 -69.4)"/><path class="cls-7" d="M639.57,127.5c-.24-.64-.49-1.29-.73-1.94,5.29,2,6.66-5.23,11.29-4.78C648.14,125.43,646.58,130.74,639.57,127.5Z" transform="translate(-65.92 -69.4)"/><path class="cls-2" d="M637.8,123.77c-3-1.35-6.7-1.83-7.16-6.12C633.48,119.17,637.1,119.77,637.8,123.77Z" transform="translate(-65.92 -69.4)"/><path class="cls-12" d="M673.53,185.45c-1.84-3.29-4.81-.75-7.17-1.39l-2.69-.82c-1.18-1.2-.83-2.71-.88-4.15a13.74,13.74,0,0,1,2.81.18c4.42,1.18,7.12-.48,7.18-5,.05-4-1.52-6-6.26-4.07-1.71.71-4.47-.93-6.69-1.68-1.25-.41-2.58-2.1-3.64-.32-3.87,6.46-11.39,4.41-16.7,7.42l0-1.78,1.87-6.73c3.64-1,4.78-4.25,6.81-6.85,2.74-3.51,9.28-1.13,10.84-3.63,3.65-5.87,7.48-6.3,13.78-5.67,5,.5,9.49,1,13.61,3.92,1.34,1,2.39,3.39,4.67,1.42l1.14,1.77c-.84,2.28-3.18,3.84-3.14,6.54-5,2.39-5.75,6.94-6,11.73-5.67-1.82-4.74,3.08-5.94,5.82C676.63,184,676.32,186.1,673.53,185.45Z" transform="translate(-65.92 -69.4)"/><path class="cls-10" d="M654.44,191c.19,1.64-3.4,5.66,2.5,3.71,1.9-.62,4.22.13,6.28-.18,5.45-.82,4.49,2.28,3.55,5.47-4.87,0-5.17,3.88-6.21,7.16l-1.81,1.11-2.64-.84c-.94-2.57-2-4.77-5.26-2.47a8.58,8.58,0,0,1-1.14-.26c-4.88-.48-8.29,2.37-11.72,5.17l-2.72-.58-1.5-11.91c5.92-5.13,14-3.39,20.56-6.55Z" transform="translate(-65.92 -69.4)"/><path class="cls-9" d="M683.07,176.34c.28-4.79,1-9.34,6-11.73,3.72.44,6.07-3,9.51-3.35,2,1.38-.56,4.12,1.65,5.5,2.34-.6,1.61-3.1,2.77-4.37,1.35-1.49,4.34-.35,4.92-3.08q.67.09,1.35.12l-.63,3c-1,5.26-1.93,10.53-3,16.38-3.13-1.88-1.57-6.54-5.37-6.87l-.49-.46.5.46c-.54,3.43-2.32,6.65-1.7,10.3.25,1.46-.14,2.89-2,3.06a3.86,3.86,0,0,1-3.66-1.62c-.79-1.07-1-2.46.12-3.11,5.17-3.05,1.32-6.85,1.18-10.81a46.8,46.8,0,0,0-8.82,8C683.32,180,682.94,178.37,683.07,176.34Z" transform="translate(-65.92 -69.4)"/><path class="cls-6" d="M658.75,208.24l1.81-1.11c3.21,3.66,6.9,6.08,12.07,4.57,3.54.94,6.2.7,10-1.38,3.37-1.86,10.15-.6,12.35,5.61-1,1.28-3.32,1-3.63,3.08-12.86-1.15-25.86-1.19-38.32-5.27.48-1.08,1.21-2.25,2.46-1.81C659.87,213.49,659.28,210.9,658.75,208.24Z" transform="translate(-65.92 -69.4)"/><path class="cls-4" d="M672.63,211.7c-5.17,1.51-8.86-.91-12.07-4.57,1-3.28,1.34-7.2,6.21-7.16,2.46-.24,6.29-2.14,4,3.35-.86,2,1.08,3.47,1.17,5.3l1,1.69C672.82,210.77,672.72,211.23,672.63,211.7Z" transform="translate(-65.92 -69.4)"/><path class="cls-10" d="M663.67,183.24l2.69.82c-.15,7.66-.64,7.94-11.92,6.91l-.11-.17,1-3.91C658.49,186.45,662.69,188.5,663.67,183.24Z" transform="translate(-65.92 -69.4)"/><path class="cls-9" d="M693.57,196c2.84,1.61,6.48,2.39,6.1,6.55-.12,1.24-1,2.4-2.33,1.73C694.1,202.58,693.55,199.39,693.57,196Z" transform="translate(-65.92 -69.4)"/><path class="cls-9" d="M673.53,185.45c2.79.65,3.1-1.43,3.6-3.29,2.22.48,4.37,1.2,3.18,4.1a5.64,5.64,0,0,1-5.49,3.58C671.86,189.62,673.24,187.17,673.53,185.45Z" transform="translate(-65.92 -69.4)"/><path class="cls-6" d="M672.93,210.31l-1-1.69Z" transform="translate(-65.92 -69.4)"/><path class="cls-9" d="M711.15,146.81l2-9.62c6.8,2.92,1,6.81.79,10.26Z" transform="translate(-65.92 -69.4)"/><path class="cls-4" d="M573.37,296.19c0-1.94,1.88-3.83.17-5.81.1-.43.2-.85.29-1.28,7.71-2.25,15.42-3.61,23.24-.36.46.19,1.25-.39,1.88-.61l-.06,0,5.1.63c.15.25.3.5.44.75a17.92,17.92,0,0,1-9.39,2.1l-4-1.1c-5.39-.79-9.92.6-13.15,5.23Z" transform="translate(-65.92 -69.4)"/><path class="cls-9" d="M591,290.54l4,1.1c1.43,1.9,4.56,3.07,2.75,6.37l-5.42-1.39C593.14,294.32,590.06,292.88,591,290.54Z" transform="translate(-65.92 -69.4)"/><path class="cls-4" d="M607.79,287.35c2-1,4.05-1.61,6.12-.1C611.9,289.17,609.84,287.85,607.79,287.35Z" transform="translate(-65.92 -69.4)"/><path class="cls-4" d="M605,286.68l2.77.64c-.36,1.9-1.54,2.56-3.38,2.22-.14-.25-.29-.5-.44-.75Z" transform="translate(-65.92 -69.4)"/><path class="cls-3" d="M616,312.9a1.59,1.59,0,0,1,1.87,1.31l-2.47.06Z" transform="translate(-65.92 -69.4)"/><path class="cls-4" d="M614,315.24c.64,2.45-1.14.92-1.86,1.13Z" transform="translate(-65.92 -69.4)"/><path class="cls-3" d="M615,311.23c.74.3,1.33.71,1.06,1.66Z" transform="translate(-65.92 -69.4)"/><path class="cls-2" d="M579.93,316.79c-2.78,1.2-5.06.08-7.22-1.56l.09-.05q1.51-5.54,3-11.07c3.64-1.2,4.45,1.07,4.48,3.88S580.06,313.86,579.93,316.79Z" transform="translate(-65.92 -69.4)"/><path class="cls-4" d="M575.82,304.11q-1.5,5.53-3,11.07c-1.83-2.39.5-5.33-1-7.76.39-1.08.65-2.13-.41-3l1.52-1.32Z" transform="translate(-65.92 -69.4)"/><path class="cls-4" d="M630.78,312.31c-.86,2.73-2.85,2.22-4.85,1.71,0-1.12-.45-2.86.07-3.23C628,309.4,629,312.36,630.78,312.31Z" transform="translate(-65.92 -69.4)"/><path class="cls-5" d="M568.81,239.4c1-7.78,2-15.57,3.12-23.34.32-2.2,1.72-3.17,4-2.62,2.09.49,3.51,1.47,2.86,3.86-1,3.66.28,5.88,4,6.7-.08.84-.17,1.68-.26,2.52-.46,2.46-2.33,4.79-.65,7.43-1.27,7.55,4.14,4.67,7.59,4.86.36,5.58,4.16,3.16,7,3,5,2.62,11.06,1.63,15.86,4.83-1.61,2.87-4.23,2.44-6.84,2.11-2.24-.28-4.44-2-6.77-.25l-.07,0-2.63-.73c-5-4.48-11.81-3.76-17.6-6Z" transform="translate(-65.92 -69.4)"/><path class="cls-11" d="M599,288.13c-.63.22-1.42.8-1.88.61-7.82-3.25-15.53-1.89-23.24.36a8.75,8.75,0,0,1,2.71-5.29c.13-.44.27-.87.42-1.3l4,1,1.4.29a27.11,27.11,0,0,0,11.33,1.49C594.69,287.65,597.14,287.32,599,288.13Z" transform="translate(-65.92 -69.4)"/><path class="cls-14" d="M578.43,241.85c5.79,2.2,12.58,1.48,17.6,6C590.26,245.54,583.44,246.37,578.43,241.85Z" transform="translate(-65.92 -69.4)"/><path class="cls-11" d="M575.38,270.85c-.38.88-1,1.77-2,1.2a2.14,2.14,0,0,1-.7-3,2.56,2.56,0,0,1,2.37-.56C576.13,268.91,575.59,270,575.38,270.85Z" transform="translate(-65.92 -69.4)"/><path class="cls-5" d="M584.18,265.27l-.51-.11-.48-.2a2.89,2.89,0,0,1,.14-1.4c1.44.4,3,.59,3.7,2.22Z" transform="translate(-65.92 -69.4)"/><path class="cls-16" d="M584.18,265.27l2.85.51c.54.52.63,1.29-.13,1.31C585.71,267.13,584.19,267.18,584.18,265.27Z" transform="translate(-65.92 -69.4)"/><path class="cls-5" d="M582.41,283.77l-1.4-.29,1.12-1.62Z" transform="translate(-65.92 -69.4)"/><path class="cls-5" d="M577,282.51c-.15.43-.29.86-.42,1.3-.62-.59-1.21-1.18-.38-2C576.17,281.78,576.68,282.26,577,282.51Z" transform="translate(-65.92 -69.4)"/><path class="cls-14" d="M583.33,263.56a2.89,2.89,0,0,0-.14,1.4l-.92-.54Z" transform="translate(-65.92 -69.4)"/><path class="cls-10" d="M563.4,175a22.08,22.08,0,0,1-2.92-1.78c-1.2-1-3.14-2-2.4-3.8,1.1-2.76,3.12,1.63,4.58-.29-.16-5.57-6.75-8.61-5.79-14.63,1-1.22,2.28-3.15,3.21-.12.73,2.39,1.41,4.46,4.25,4.82-1,3.37-.82,6.53,1.66,9.6l3.78-4,1.94.86c-.65,1.95.14,3.38,1.62,4.57l-.77,2.74c-3.4,9.39-2.25,11.21,8,10.55-3-1.82-4.22-3.88-3.24-6.58l-.9-1.54h0a13.05,13.05,0,0,0,3.19-6.43l5.37,1.27c-6,3.31,1.31,7.2-.42,10.72,0,0,.78.66,1.09.58,4.09-1,6.56-4.35,9.49-6.91,1.91-1.67,1.55-4.79,0-6.52-2.73-3.11-6.24-2.49-9.56-.55l-5-2.78,0-.05c2.41-4.09,6.26-1.58,9.38-1.83,6-.47,11-1.62,12.3-8.58l2.86-5.37L605,149c5.53,3.09,10.87.89,16.23-.61l1,2.1c-3.84,1-3,8.4-8.94,6.5.07-1.05.39-2.22-1.15-2.5a.68.68,0,0,0-.54.32c-.49,1.49.7,1.77,1.65,2.21-.38,2,1.17,2.55,2.4,3.69,5.52,5.12,14.43,4.84,18.62,11.92-1.39,5.76-6.09,3.11-9.26,3.2-2.84.08-5.13-.4-5.7,3.16-7.27-1.2-11.85,1.58-15.43,9.36-3.18,1.68-7.3,5-9.81,3.56-5.64-3.29-9.44-1.67-13.5,1.95l-.23.48L575,192.64c2.19-7.82-2.27-5.76-6.34-4.26a7.74,7.74,0,0,1-1.25-.64C568.71,182.68,569.14,177.9,563.4,175Zm43.38-17.65c-1.69,3.85-3.51,6-1.23,9C607.39,163.9,608.21,161.78,606.78,157.39Z" transform="translate(-65.92 -69.4)"/><path class="cls-12" d="M590.66,199.72c-3.18-2.26-8.58-.26-10.28-5.35l.23-.48c4.72,1.26,9.44,2.53,14.17,3.75,1.39.36,3,.66,3.69-1,1.69-4.2,5.31-3.44,8.36-3,2.79.38,5.32.31,7.24-1.57,7-6.86,14.64-12.35,24.56-13.94,2,2-.59,4.33.52,6.36l5.3-.51c-.38,2.14-1.87,3-3.81,3.58-4.78,1.36-7.32,4.69-8.08,9.51l-2.95-.92c2.51-5,.17-8.23-4.37-6.05-7,3.33-13.89,7.37-19.38,13.17l-11.05-2.22Z" transform="translate(-65.92 -69.4)"/><path class="cls-13" d="M590.66,199.72l4.15,1.33c-.22,2.13,1.45,2.4,2.84,3.3,7.81,5.07,16.37,4,24.89,3.41l.76,1.72c2.63,2.63,8.09,4.61,2.09,9.2-1.93-.79-3.8-1.75-5.79-2.35-7.13-2.16-13.72-7-21.8-4.61l-2.63-.74c0-4.81-3.86-5.21-7.17-6.21-4.84-1.46-10.24-1.65-14.16-6.47C579.9,196,585,201.84,590.66,199.72Z" transform="translate(-65.92 -69.4)"/><path class="cls-14" d="M636,222.76a240.89,240.89,0,0,0,29.72,5c3.22.31,5.66,1.18,4.41,5.21-7.14-2-8.64,3.11-10,8.5-.81-4.41-3-10.64-5.26-10.12-5.3,1.19-8.57-2.68-13-2.77.3-3.47-2.55-3.32-4.62-3.87-6-1.61-12-3.08-18.08-4.61-7.11-2.63-15.19-2.25-21.59-7l-.05,0Z" transform="translate(-65.92 -69.4)"/><path class="cls-16" d="M614.81,223.38c1-1.27,2.4-.81,3.69-.77,1.36,3.36,4.34,1.39,6.54,2-.49,2.77-.92,5.55-1.47,8.31-.58,3-1.56,5.22-5.08,2.6-1.73-1.29-4.24.68-5.86-1.3C613.58,230.65,615.08,227.2,614.81,223.38Z" transform="translate(-65.92 -69.4)"/><path class="cls-6" d="M600,221.14c4.09-1.64,7.75.71,11.6,1.25,2.29,5.9-5.28,6-6,10.09-3.68.35-3.82-4.89-7.4-4.7Z" transform="translate(-65.92 -69.4)"/><path class="cls-15" d="M600,221.14l-1.77,6.64c-2,1.85-4,.45-5.93,0-.35-3-1.81-6-.73-9.13-.68-1.48-2.67-2.21-2.42-4.23C594.68,213.61,596.61,218.59,600,221.14Z" transform="translate(-65.92 -69.4)"/><path class="cls-5" d="M625,224.61c-2.2-.61-5.18,1.36-6.54-2l.66-2.54c6,1.53,12.07,3,18.08,4.61,2.07.55,4.92.4,4.62,3.87a2.53,2.53,0,0,1-1.16,0l-3-.9-9.35-2.25Z" transform="translate(-65.92 -69.4)"/><path class="cls-15" d="M605.66,232.48c.69-4.13,8.26-4.19,6-10.09l3.18,1c.27,3.82-1.23,7.27-2.18,10.84l-1.32,4.13a2.18,2.18,0,0,1-.88,0C611.75,234,608.64,233.29,605.66,232.48Z" transform="translate(-65.92 -69.4)"/><path class="cls-4" d="M568.61,188.38c4.07-1.5,8.53-3.56,6.34,4.26-4.65,3.91-3.05,10-5.08,14.78-1.91-2.56-.32-5.07.43-7.38C571.68,195.76,572,191.86,568.61,188.38Z" transform="translate(-65.92 -69.4)"/><path class="cls-4" d="M589.18,214.45c-.25,2,1.74,2.75,2.42,4.24-6.9-.66-7.43.2-5.36,8.75l-3.69-.92c.09-.84.18-1.68.26-2.52.27-.9.53-1.81.8-2.71l2.68-7.68Z" transform="translate(-65.92 -69.4)"/><path class="cls-14" d="M595.17,211l2.63.74a12.26,12.26,0,0,1-.28,1.34l.05,0-10.77-2.75.3-1.36Z" transform="translate(-65.92 -69.4)"/><path class="cls-15" d="M586.29,213.61l-2.68,7.68C582.81,218.14,582.48,215.15,586.29,213.61Z" transform="translate(-65.92 -69.4)"/><path class="cls-14" d="M611.31,238.35l1.32-4.13c1.62,2,4.13,0,5.86,1.3,3.52,2.62,4.5.35,5.08-2.6.55-2.76,1-5.54,1.47-8.31l3.3.84c-.69,2.69-1.44,5.35-2,8.06-.66,3,.65,4.93,3.63,5.63s5-.35,5.84-3.34c.72-2.68,1.28-5.4,1.91-8.1l3,.9c-2.24,3.16-4.29,6.7-2.83,10.49,1.65,4.29,5.77,2.81,9.2,2.77,1,0,1.91,1.44,2.94,1.56,5.78.66,11.53,1.27,17.08,3.25,1.25.44,2.69-.91,3.16-2.33,1.56-4.76,3.16-3.48,4.1.11.61,2.31,2,2.35,3.64,2.32,2.4-.05,1.4-1.88,1.39-3.12a2.16,2.16,0,0,1,1.34-2.23c2.14-.87,5-1.33,4.36-4.48-.71-3.49-4.39-1.71-6.42-3,0-1.62-3.09-2.9-.66-4.73,2-1.48,2.53.91,3.78,1.5,2.35,1.1,5.52.16,7.32,2.84-2.91,5.07-5.47,10.22-4,16.77-6.06-2.66-8.75,3.15-13.09,4.88-.84-1.69,3.53-4.77-2-5.47-3.83-.49-4,2.65-3.55,3.46.85,1.53,3.1,2.28,4.77,3.35,2.75.58,5.49,1.28,8.27,1.66,1.25.17,2.87.32,3.1-1.85.09-.91-2.53-1.68-.24-2.39a3.38,3.38,0,0,1,3,1.19c.61,1.24-1.48,4.72,2.08,3.13,1.8-.8,3.93-5.57,3.49-6-6-5.63,1.74-3.17,2.58-4.6,1.15.18,2.41.75,3.42.45,2-.59,3.14-4.14,5.9-2s.07,4.77.23,7.17c-.39,1.9-1.61,3.78-.09,5.71l-1.59,5.54c-3.55,2.46-1.84,7.7-5.37,10.17-4.51-2-9.4.14-14-1.39-1.89-.62-4.16,0-6.25-.1-6.34-.34-8.72-3.51-7.62-10,1,.08,2.2.43,2.49-1.11a.65.65,0,0,0-.31-.54c-1.49-.47-1.75.72-2.18,1.67-4.25-1.09-8.62-1.88-12.73-3.36s-7.59.49-11.22,1.67c-.94-2.44-1.57-5.13-4.71-5.79a3.68,3.68,0,0,0,.17-1.24l1.86-2c3.07,1,4.65-1.27,6.52-2.92.09,1.32-1.84,4,.9,3.52,1.92-.31,5.72-1,5.46-4.24-.28-3.35-2.93-3.63-5.7-2.35l-6.66-1.49-1.5-.26a1.65,1.65,0,0,0-1.28-.2c-1.84-.44-4.15-2.4-5.34.13-1,2.15-1.1,5,2.44,5.78l1.34.37c-.15.23-.28.46-.41.7l-3,1.25-1.55-.35-1.74-3c-.51-2.53,3.33-6.45-1.61-7.44C623.36,240.85,617.59,238.31,611.31,238.35Zm49.06,9.8c-2-.66-4.23-1.48-5.13,1.4-.69,2.18-1.44,4.92,2.11,5.3,2.57.28,6,2.08,7.65-.89C667.77,249.09,661.52,250.47,660.37,248.15Z" transform="translate(-65.92 -69.4)"/><path class="cls-16" d="M639.52,255.82c3.14.66,3.77,3.35,4.71,5.79.7,4.26-1.17,7.13-5,8.85-.78.35-1.75,0-2.32,1.12-.78,1.5,1.39,4.7-2.4,4.44-3.3-.23-2.21-3.68-3.67-5.27l.79-2.28c1.28-3,1.28-3-5.07-3.41l-4-1.84c0-.51.11-1,.17-1.54,2.35-.26,5.17,4.08,7-.72,1.6.16,3.33,0,4.78.53,7.12,2.74,4.87-1.69,4-5.1C638.91,256.19,639.21,256,639.52,255.82Z" transform="translate(-65.92 -69.4)"/><path class="cls-14" d="M598.73,248.49c2.33-1.73,4.53,0,6.77.25,2.61.33,5.23.76,6.84-2.11,1.33-.61,3.26,1.38,4.22-1,.37-.94-2.9-2.39.33-2.71,1.27-.13,2.91.14,3.09,2.06.1,1.06-.41,3.13.95,2.73,2.24-.65,3.69-2.23,4.93,1.45,1.34,4-3.45,2.47-3.56,4.81l-.73,2-.54.11.23.77-.27,1.57c-1.9.78-2,1.93-.69,3.37-4.15.33-5.92-.58-3.29-5,1.72-2.91,2.2-5.09-3.14-5C608.84,251.82,603.78,249.68,598.73,248.49Z" transform="translate(-65.92 -69.4)"/><path class="cls-4" d="M677.54,296.22l-2.12,1.22-2.49-.73c-.33-4.65-3.57-4.15-6.62-3.54-1.76.35-3.09,2.19-5.18,1.71.59-1.06,1.18-2.12,1.76-3.19l2.77-1.16h0C670.81,290,675.11,291.16,677.54,296.22Z" transform="translate(-65.92 -69.4)"/><path class="cls-11" d="M650.53,292.45a13.15,13.15,0,0,1-10.85-.58c-2.55-1.39.14-1.58,1.2-1.85Z" transform="translate(-65.92 -69.4)"/><path class="cls-8" d="M631.68,268.47l-.79,2.28c-2.44.94-1,4.33-3.81,5.62-1.36-3.16,1.62-5.69,1-8.47l2.46.26.56.28Z" transform="translate(-65.92 -69.4)"/><path class="cls-14" d="M631.68,268.47l-.62,0-.56-.28c-.58-2.24-1.65-2.06-3-.61-.3-.83-.6-1.66-.91-2.49C633,265.52,633,265.52,631.68,268.47Z" transform="translate(-65.92 -69.4)"/><path class="cls-11" d="M605,286.68l-1,2.11-5.1-.63C600.47,285.72,602.71,286,605,286.68Z" transform="translate(-65.92 -69.4)"/><path class="cls-4" d="M620.3,261.83c-1.32-1.44-1.21-2.59.69-3.37l1.32.58.07,2.28-1.11.64A7.8,7.8,0,0,1,620.3,261.83Z" transform="translate(-65.92 -69.4)"/><path class="cls-16" d="M627.52,267.55c1.33-1.45,2.4-1.63,3,.61L628,267.9Z" transform="translate(-65.92 -69.4)"/><path class="cls-15" d="M665.66,290.53l-2.77,1.16C663.38,290.25,664.5,290.33,665.66,290.53Z" transform="translate(-65.92 -69.4)"/><path class="cls-4" d="M622.76,261.67c-.06.52-.12,1-.17,1.55L621.27,262l1.11-.64Z" transform="translate(-65.92 -69.4)"/><path class="cls-10" d="M657,301.46c-1,5.19-4.41,5-8.28,3.77C650.54,301.92,652.94,299.88,657,301.46Z" transform="translate(-65.92 -69.4)"/><path class="cls-4" d="M650.1,299.67l-1.68.65c0-1.71,1.14-.38,1.69-.64Z" transform="translate(-65.92 -69.4)"/><path class="cls-4" d="M650.11,299.68l.44-.47-.45.46Z" transform="translate(-65.92 -69.4)"/><path class="cls-4" d="M563.4,175c5.74,2.86,5.31,7.64,4,12.7L561,178.93C561.83,177.64,562.61,176.34,563.4,175Z" transform="translate(-65.92 -69.4)"/><path class="cls-3" d="M553.73,259c.5-1.88,1-3.76,1.49-5.64C556.16,255.63,556.13,257.63,553.73,259Z" transform="translate(-65.92 -69.4)"/><path class="cls-3" d="M554,263.36c-2.76-.6-1.7-1.84-.52-3.1A2.83,2.83,0,0,1,554,263.36Z" transform="translate(-65.92 -69.4)"/><path class="cls-6" d="M558.37,177.88a6.42,6.42,0,0,1,1.09.68C558.59,179.14,558.33,178.74,558.37,177.88Z" transform="translate(-65.92 -69.4)"/><path class="cls-12" d="M569.76,164.82l-3.77,4c-2.48-3.07-2.66-6.23-1.66-9.6,3.7-8.76,13.57-7.44,20-12a14.53,14.53,0,0,0,6.23-8.74c4.12,4.45,7.49,5.56,11.32-.06,2.9-4.26,7.77-4.31,12.35-1.78,2.15,1.42,3.59,5,6.52,3.76,2.11-.92.22-4.14,1-6.22,5.12-4.93,11.29-4.44,16.16,1.26-5.54,2.2-2.65,8.59-5.91,11.92-2.12-6.12-7-3.18-10.91-3.29-5.31,1.73-12-1.2-16,4.92l.12-.06c-8.83-.63-16.81,2.63-24.89,5.46A56.29,56.29,0,0,0,569.76,164.82Z" transform="translate(-65.92 -69.4)"/><path class="cls-6" d="M621.67,134.22c-.74,2.08,1.15,5.3-1,6.22-2.93,1.29-4.37-2.34-6.52-3.76.33-2.49-1.33-3.2-3.27-3.72-2.71-.72-3.82-2.49-3.29-5.26.85-2.74,2.86-2.09,4.81-1.65C614.37,130.06,618.7,131.37,621.67,134.22Z" transform="translate(-65.92 -69.4)"/><path class="cls-16" d="M678.66,234c2,1.28,5.71-.5,6.42,3,.63,3.15-2.22,3.61-4.36,4.48a2.16,2.16,0,0,0-1.34,2.23c0,1.24,1,3.07-1.39,3.12-1.6,0-3,0-3.64-2.32-.94-3.59-2.54-4.87-4.1-.11-.47,1.42-1.91,2.77-3.16,2.33-5.55-2-11.3-2.59-17.08-3.25-1-.12-2-1.57-2.94-1.56-3.43,0-7.55,1.52-9.2-2.77-1.46-3.79.59-7.33,2.83-10.49a2.53,2.53,0,0,0,1.16,0c4.4.09,7.67,4,13,2.77,2.29-.52,4.45,5.71,5.26,10.12,1.36-5.39,2.86-10.52,10-8.5C672.9,233.69,675.7,234.49,678.66,234Z" transform="translate(-65.92 -69.4)"/><path class="cls-16" d="M693.58,247.7c-.84,1.43-8.55-1-2.58,4.6.44.42-1.69,5.19-3.49,6-3.56,1.59-1.47-1.89-2.08-3.13a3.38,3.38,0,0,0-3-1.19c-2.29.71.33,1.48.24,2.39-.23,2.17-1.85,2-3.1,1.85-2.78-.38-5.52-1.08-8.27-1.66l.75-1.34c4.34-1.73,7-7.54,13.09-4.88-1.47-6.55,1.09-11.7,4-16.77q8.4,0,6.86,8.21l-.3,1.84Z" transform="translate(-65.92 -69.4)"/><path class="cls-11" d="M597.52,213.06a12.26,12.26,0,0,0,.28-1.34c8.08-2.35,14.67,2.45,21.8,4.61,2,.6,3.86,1.56,5.79,2.35,3.46,1.53,7.87.6,10.57,4.08Z" transform="translate(-65.92 -69.4)"/><path class="cls-4" d="M623.3,209.48l-.76-1.72,2-1.11c3.2,2.48,7,2.46,10.77,2.61l2.71.58,8.24,2.13,5.35,1.74c-6.86,2.51-13-1.13-19.49-2.21C629.12,211,626.22,210.17,623.3,209.48Z" transform="translate(-65.92 -69.4)"/><path class="cls-9" d="M651.57,213.71,646.22,212c3.41-1.36,3-4.57,3.49-7.31a8.58,8.58,0,0,0,1.14.26c1.13,2.14,3.38,1.91,5.26,2.47l2.64.84c.53,2.66,1.12,5.25-3.27,3.69-1.25-.44-2,.73-2.46,1.81Z" transform="translate(-65.92 -69.4)"/><path class="cls-13" d="M635.76,217.06c-.9.27-1.5.65-2,.55-.94-.19-1.59-.93-1-1.87.21-.34,1.23-.42,1.75-.24S635.22,216.35,635.76,217.06Z" transform="translate(-65.92 -69.4)"/><path class="cls-14" d="M695.66,243.61l.3-1.84c.53.28,1.51.55,1.52.85C697.55,243.94,696.52,243.73,695.66,243.61Z" transform="translate(-65.92 -69.4)"/><path class="cls-10" d="M697.72,147.8c-.17-4.26,7.14-8-1-12.79,4.6-1,7.91,3.15,10.24-.87,3,1.17,3.78,5.47,2.5,5.91-5.21,1.84-.5,10.75-7.88,10.3C701.05,148.34,697.83,150.41,697.72,147.8Z" transform="translate(-65.92 -69.4)"/><path class="cls-6" d="M697.72,147.8c.11,2.61,3.33.54,3.85,2.55l-2.52,3.72a12.59,12.59,0,0,0-8.29-2.15,2.06,2.06,0,0,1,.16-.68c1.94-2.88-3.56-6.93.59-8.68C694.87,141.15,694.05,147.77,697.72,147.8Z" transform="translate(-65.92 -69.4)"/><path class="cls-2" d="M708,159.31c-.58,2.73-3.57,1.59-4.92,3.08-1.16,1.27-.43,3.77-2.77,4.37-2.21-1.38.31-4.12-1.65-5.5l.71-2.78C702.4,156.59,705.09,158.89,708,159.31Z" transform="translate(-65.92 -69.4)"/><path class="cls-6" d="M699.32,158.48l-.71,2.78c-3.44.34-5.79,3.79-9.51,3.35,0-2.7,2.3-4.26,3.14-6.54l5.87-1.26C698.51,157.37,698.91,157.93,699.32,158.48Z" transform="translate(-65.92 -69.4)"/><path class="cls-2" d="M698.11,156.81l-5.87,1.26-1.14-1.77c-.11-1.46-.23-2.92-.34-4.39h0a12.59,12.59,0,0,1,8.29,2.15C698.73,155,698.42,155.9,698.11,156.81Z" transform="translate(-65.92 -69.4)"/><path class="cls-7" d="M706.05,132.33a5,5,0,0,0-.07-1.4C706.74,131.35,707.38,131.79,706.05,132.33Z" transform="translate(-65.92 -69.4)"/><path class="cls-6" d="M625.78,119.18c-1.17,6.79-5.66,4.28-9.56,3.42C616.58,117.3,619.63,116.22,625.78,119.18Z" transform="translate(-65.92 -69.4)"/><path class="cls-6" d="M690.76,151.91c.11,1.47.23,2.93.34,4.39-2.28,2-3.33-.46-4.67-1.42-4.12-3-8.58-3.42-13.61-3.92-6.3-.63-10.13-.2-13.78,5.67-1.56,2.5-8.1.12-10.84,3.63-2,2.6-3.17,5.9-6.81,6.85-1.4-3.89-1.06-8-1.27-12,3.08-1.62,2.17-5.85,5-7.62,3.76,4.28,3.76,4.28,9.83,1,0,1.75-1.74,3.65.08,5.17,1.07.89,2.36,0,2.87-1.06,1-2,2.56-4.22-.27-6.07a7.93,7.93,0,0,0-2-.65c1.07-5.44,5.28-3.87,7.55-2.29,5.49,3.79,7.77.73,10-3.48l0,0c5.56,2.35,6.46-1.43,7.18-5.45,2.31,1.17,4.83,2.07,6.2,4.52C687.63,143.56,686.71,148.54,690.76,151.91Z" transform="translate(-65.92 -69.4)"/><path class="cls-9" d="M645.13,147.5c-2.84,1.77-1.93,6-5,7.62-1.27-2.66-3.78-4.05-5.94-5.79-1-.4-2-.69-2.26-1.93,3.26-3.33.37-9.72,5.91-11.92l.25-.14c1.91.64,2.75-.27,3-2.06l.25-.14c1.17.51,2.24.55,3.1-.59l2.76.64c1.22,1.28,1.12,3.68,3.41,4.07C651.53,142.15,645,143.05,645.13,147.5Z" transform="translate(-65.92 -69.4)"/><path class="cls-6" d="M671.24,130.8l6.48,3.21c-1.81,1.8-4.27,3.12-4.43,6.11l0,0-5.12-2.77,0,0C669,135.1,668.5,132.16,671.24,130.8Z" transform="translate(-65.92 -69.4)"/><path class="cls-9" d="M655.66,145.91a7.93,7.93,0,0,1,2,.65c2.83,1.85,1.26,4.06.27,6.07-.51,1-1.8,2-2.87,1.06-1.82-1.52-.12-3.42-.08-5.17C655.19,147.65,655.43,146.78,655.66,145.91Z" transform="translate(-65.92 -69.4)"/><path class="cls-6" d="M668.13,137.37l-.48.48c.15-.17.31-.34.46-.52Z" transform="translate(-65.92 -69.4)"/><path class="cls-2" d="M673.29,140.12c.16-3,2.62-4.31,4.43-6.11l2.76.66C679.75,138.69,678.85,142.47,673.29,140.12Z" transform="translate(-65.92 -69.4)"/><path class="cls-10" d="M644.4,132.55c-.86,1.14-1.93,1.1-3.1.59C642.08,131.61,642.89,130.2,644.4,132.55Z" transform="translate(-65.92 -69.4)"/><path class="cls-10" d="M641.05,133.28c-.22,1.79-1.06,2.7-3,2.06.22-.88.44-1.76.67-2.64Z" transform="translate(-65.92 -69.4)"/><path class="cls-2" d="M634.18,149.33c2.16,1.74,4.67,3.13,5.94,5.79.21,4-.13,8.1,1.27,12l-1.87,6.73-5.21-1.18c-4.19-7.08-13.1-6.8-18.62-11.92-1.23-1.14-2.78-1.66-2.4-3.69l0,0c5.94,1.9,5.1-5.51,8.94-6.5.14-.44.26-.89.39-1.33l1.42.24,2.77.81c.23.85.56,1.06,1.06.16C629.59,147.65,632.87,154.27,634.18,149.33Zm-8.1,4.35c-1.83-.89-3.29.26-4.42,3.28-1.2,3.22.77,3.77,2.85,4.34,2.29.63,5.41,1.07,6-1.48C630.84,158.47,630.94,154.49,626.08,153.68Z" transform="translate(-65.92 -69.4)"/><path class="cls-6" d="M634.31,172.66l5.21,1.18,0,1.78-.86,2.51c-9.92,1.59-17.6,7.08-24.56,13.94-1.92,1.88-4.45,2-7.24,1.57-3.05-.42-6.67-1.18-8.36,3-.66,1.64-2.3,1.34-3.69,1-4.73-1.22-9.45-2.49-14.17-3.75,4.06-3.62,7.86-5.24,13.5-1.95,2.51,1.46,6.63-1.88,9.81-3.56,8.39,2.22,11.71-3.9,15.43-9.36.57-3.56,2.86-3.08,5.7-3.16C628.22,175.77,632.92,178.42,634.31,172.66Z" transform="translate(-65.92 -69.4)"/><path class="cls-15" d="M638.63,178.13l.86-2.51c5.31-3,12.83-1,16.7-7.42,1.06-1.78,2.39-.09,3.64.32,2.22.75,5,2.39,6.69,1.68,4.74-2,6.31.06,6.26,4.07-.06,4.52-2.76,6.18-7.18,5a13.69,13.69,0,0,0-2.8-.18c-4.14-.05-8.17-1.87-12.39-.79a6.44,6.44,0,0,0-5.95,5.68h0l-5.3.51C638,182.46,640.65,180.09,638.63,178.13Z" transform="translate(-65.92 -69.4)"/><path class="cls-3" d="M650.41,178.3c4.22-1.08,8.25.74,12.39.79,0,1.44-.31,2.95.87,4.15-1,5.26-5.18,3.21-8.29,3.65-2.3-.52-2.89-2.88-4.48-4.16Z" transform="translate(-65.92 -69.4)"/><path class="cls-9" d="M650.9,182.73c1.59,1.28,2.18,3.64,4.48,4.16l-1,3.91c-6.54,3.16-14.64,1.42-20.56,6.55l-1.21-.28c.76-4.82,3.3-8.15,8.08-9.51,1.94-.56,3.43-1.44,3.81-3.58h0C646.67,183.89,648.48,181.71,650.9,182.73Z" transform="translate(-65.92 -69.4)"/><path class="cls-6" d="M632.56,197.07l1.21.28,1.5,11.91c-3.76-.15-7.57-.13-10.78-2.61-2.09-3.4,1-5.55,2-8.2,1.85.44,2.77-.42,3-2.19l.12-.11Z" transform="translate(-65.92 -69.4)"/><path class="cls-2" d="M649.71,204.67c-.52,2.74-.08,6-3.49,7.31L638,209.84C641.42,207,644.83,204.19,649.71,204.67Z" transform="translate(-65.92 -69.4)"/><path class="cls-2" d="M656.11,207.4c-1.88-.56-4.13-.33-5.26-2.47C654.07,202.63,655.17,204.83,656.11,207.4Z" transform="translate(-65.92 -69.4)"/><path class="cls-2" d="M700.3,171.92l-.5-.46.49.46Z" transform="translate(-65.92 -69.4)"/><path class="cls-16" d="M622.3,254c.11-2.33,4.9-.82,3.56-4.8-1.24-3.68-2.69-2.1-4.93-1.45-1.36.4-.85-1.67-.95-2.73-.18-1.92-1.82-2.19-3.09-2.06-3.23.32,0,1.77-.33,2.71-1,2.39-2.89.4-4.22,1-4.8-3.2-10.88-2.21-15.86-4.83.56-2.55-.41-6.3,3.42-6.65,2.8-.25,5.54,1.43,7.61,3.45.52.5-1.5,2-.22,3.24,1-1.2,3.67-.94,3.14-3.52a2.18,2.18,0,0,0,.88,0c6.28,0,12.05,2.5,18.08,3.7,4.94,1,1.1,4.91,1.61,7.44-1,.62-2.52.79-2.35,2.52-.1.34-.18.69-.25,1l-2.25,2-.07,0a.94.94,0,0,0-1.16-.28Z" transform="translate(-65.92 -69.4)"/><path class="cls-14" d="M610.43,238.32c.53,2.58-2.13,2.32-3.14,3.52-1.28-1.24.74-2.74.22-3.24-2.07-2-4.81-3.7-7.61-3.45-3.83.35-2.86,4.1-3.42,6.65-2.83.17-6.63,2.59-7-3l2.19-2.43c1.78-1.24,3.76-2.3,4.69-4.84-2.52-1.19-4.74-1.3-6.9.41-2.53.62-6.46-4-7.57,2-1.68-2.64.19-5,.65-7.43l3.69.92,6.09.37c2,.42,4,1.82,5.93,0,3.58-.19,3.72,5.05,7.4,4.7C608.64,233.29,611.75,234,610.43,238.32Z" transform="translate(-65.92 -69.4)"/><path class="cls-16" d="M581.9,234c1.11-6,5-1.38,7.58-2,.73,1.48,1.47,3,2.2,4.43l-2.19,2.43C586,238.62,580.63,241.5,581.9,234Z" transform="translate(-65.92 -69.4)"/><path class="cls-3" d="M585.62,167.58c3.32-1.94,6.83-2.56,9.56.55,1.52,1.73,1.88,4.85,0,6.52-2.93,2.56-5.4,5.92-9.49,6.91-.31.08-1.11-.56-1.09-.58,1.73-3.52-5.59-7.41.42-10.72Z" transform="translate(-65.92 -69.4)"/><path class="cls-7" d="M580.23,154.43c8.08-2.83,16.06-6.09,24.89-5.46l-2.86,5.37c-7.18,0-13.06,5.15-20.25,5.08Z" transform="translate(-65.92 -69.4)"/><path class="cls-2" d="M582,159.42c7.19.07,13.07-5.08,20.25-5.08-1.26,7-6.34,8.11-12.3,8.58-3.12.25-7-2.26-9.38,1.83l-2.89-.69Z" transform="translate(-65.92 -69.4)"/><path class="cls-4" d="M619.35,179c-3.72,5.46-7,11.58-15.43,9.36C607.5,180.6,612.08,177.82,619.35,179Z" transform="translate(-65.92 -69.4)"/><path class="cls-7" d="M605,149c4-6.12,10.7-3.19,16-4.92.07,1.44.14,2.88.22,4.31C615.87,149.92,610.53,152.12,605,149Z" transform="translate(-65.92 -69.4)"/><path class="cls-2" d="M577.32,177c-1,2.7.23,4.76,3.24,6.58-10.25.66-11.4-1.16-8-10.55,2.46-1,2.77,1.32,3.87,2.43h0Z" transform="translate(-65.92 -69.4)"/><path class="cls-3" d="M621.23,148.42c-.08-1.43-.15-2.87-.22-4.31,3.93.11,8.79-2.83,10.91,3.29.25,1.24,1.3,1.53,2.26,1.93-1.31,4.94-4.59-1.68-6.27,1.07-.36,0-.71-.09-1.06-.16l-2.77-.81c-.31-1-.79-1.12-1.42-.24-.13.44-.25.89-.39,1.33C621.92,149.82,621.57,149.12,621.23,148.42Z" transform="translate(-65.92 -69.4)"/><path class="cls-3" d="M582,159.42l-4.32,4.64a3.07,3.07,0,0,1-1.9,2.52l-4.08-.89-1.94-.87a55.93,55.93,0,0,1,10.46-10.39Z" transform="translate(-65.92 -69.4)"/><path class="cls-9" d="M575.79,166.58a3.07,3.07,0,0,0,1.9-2.52l2.89.69,0,.05-1,4.19a13.05,13.05,0,0,1-3.19,6.43c-1.1-1.11-1.41-3.47-3.87-2.43.26-.91.51-1.82.77-2.74C575.2,169.73,575.31,168,575.79,166.58Z" transform="translate(-65.92 -69.4)"/><path class="cls-3" d="M606.78,157.39c1.43,4.39.61,6.51-1.23,9C603.27,163.34,605.09,161.24,606.78,157.39Z" transform="translate(-65.92 -69.4)"/><path class="cls-2" d="M579.62,169l1-4.19,5,2.78-.63,2.68Z" transform="translate(-65.92 -69.4)"/><path class="cls-2" d="M575.79,166.58c-.48,1.45-.59,3.15-2.46,3.67-1.48-1.19-2.27-2.62-1.62-4.57Z" transform="translate(-65.92 -69.4)"/><path class="cls-2" d="M613.29,157.05c-.95-.44-2.14-.72-1.65-2.21a.68.68,0,0,1,.54-.32c1.54.28,1.22,1.45,1.15,2.5Z" transform="translate(-65.92 -69.4)"/><path class="cls-9" d="M577.32,177l-.9-1.54Z" transform="translate(-65.92 -69.4)"/><path class="cls-11" d="M626.48,198.45c-1,2.65-4.08,4.8-2,8.2l-2,1.11c-8.52.56-17.08,1.66-24.89-3.41-1.39-.9-3.06-1.17-2.84-3.3l11.05,2.22c5,4.55,8.86,1,12-2.41,2.15-2.35,3.76-4.69,7.31-4.17Z" transform="translate(-65.92 -69.4)"/><path class="cls-15" d="M625.15,196.69c-3.55-.52-5.16,1.82-7.31,4.17-3.12,3.41-6.94,7-12,2.41,5.49-5.8,12.41-9.84,19.38-13.17,4.54-2.18,6.88,1.09,4.37,6.05l-.12.11C628,195.87,626.49,195.43,625.15,196.69Z" transform="translate(-65.92 -69.4)"/><path class="cls-12" d="M592.33,227.81l-6.09-.37c-2.07-8.55-1.54-9.41,5.36-8.75C590.52,221.83,592,224.78,592.33,227.81Z" transform="translate(-65.92 -69.4)"/><path class="cls-16" d="M637.69,227.7c-.63,2.7-1.19,5.42-1.91,8.1-.81,3-2.89,4-5.84,3.34s-4.29-2.61-3.63-5.63c.59-2.71,1.34-5.37,2-8.06Z" transform="translate(-65.92 -69.4)"/><path class="cls-16" d="M660.38,248.15c1.14,2.32,7.39.94,4.62,5.81-1.68,3-5.08,1.17-7.65.89-3.55-.38-2.8-3.12-2.11-5.3C656.14,246.67,658.35,247.49,660.38,248.15Z" transform="translate(-65.92 -69.4)"/><path class="cls-4" d="M642.07,245.06l6.66,1.49-.66,3.07c-1.87,1.65-3.45,3.95-6.52,2.92-.35-.28-.71-.55-1.07-.82Z" transform="translate(-65.92 -69.4)"/><path class="cls-16" d="M648.07,249.62l.66-3.07c2.77-1.28,5.42-1,5.7,2.35.26,3.2-3.54,3.93-5.46,4.24C646.23,253.59,648.16,250.94,648.07,249.62Z" transform="translate(-65.92 -69.4)"/><path class="cls-8" d="M672,255.21l-.75,1.34c-1.67-1.07-3.92-1.82-4.77-3.35-.45-.81-.28-3.95,3.55-3.46C675.54,250.44,671.17,253.52,672,255.21Z" transform="translate(-65.92 -69.4)"/><path class="cls-4" d="M636.39,250.5c-3.54-.76-3.46-3.62-2.44-5.77,1.19-2.53,3.5-.57,5.34-.13a8.17,8.17,0,0,0-.17.86l-.25.17a7.09,7.09,0,0,0-1-.25c-2.66.67-2.84,2.13-1.29,4.13Q636.46,250,636.39,250.5Z" transform="translate(-65.92 -69.4)"/><path class="cls-12" d="M642.07,245.06l-1.59,6.66-3.16-.14c.13-.24.26-.47.41-.7l1.14-5.25.25-.17,1.45-.66Z" transform="translate(-65.92 -69.4)"/><path class="cls-5" d="M637.32,251.58l3.16.14c.36.27.72.54,1.07.82l-1.86,2-2.65-.49-2.75-1.26Z" transform="translate(-65.92 -69.4)"/><path class="cls-7" d="M634.29,252.83l2.74,1.26a3.78,3.78,0,0,0-.24.95l-5.73-1-2.66-1c.07-.34.15-.69.24-1l4.1.47Z" transform="translate(-65.92 -69.4)"/><path class="cls-6" d="M638.87,245.63l-1.14,5.25-1.34-.37c.05-.34.11-.67.18-1l1.29-4.13A7.09,7.09,0,0,1,638.87,245.63Z" transform="translate(-65.92 -69.4)"/><path class="cls-15" d="M632.74,252.48l-4.1-.47c-.16-1.73,1.34-1.9,2.36-2.52Z" transform="translate(-65.92 -69.4)"/><path class="cls-5" d="M668.18,263.3c.43-.95.69-2.14,2.18-1.67a.65.65,0,0,1,.31.54c-.29,1.54-1.46,1.19-2.49,1.11Z" transform="translate(-65.92 -69.4)"/><path class="cls-16" d="M636.79,255a3.78,3.78,0,0,1,.24-.95l2.66.49a3.68,3.68,0,0,1-.17,1.24c-.31.18-.61.37-.9.56Z" transform="translate(-65.92 -69.4)"/><path class="cls-6" d="M640.57,244.8l-1.45.66a8.17,8.17,0,0,1,.17-.86A1.65,1.65,0,0,1,640.57,244.8Z" transform="translate(-65.92 -69.4)"/><path class="cls-15" d="M636.79,255l1.83,1.34c.84,3.42,3.09,7.85-4,5.11-1.45-.55-3.18-.37-4.78-.53l-7.5-1.92-1.32-.58.27-1.57c.11-.29.21-.59.31-.88l.73-2,2.62.77c.14.39.28.78.41,1.17l.75-.89s.07,0,.07,0c2.32,3,4,2.82,4.91-1Z" transform="translate(-65.92 -69.4)"/><path class="cls-12" d="M622.31,259l7.5,1.92c-1.88,4.8-4.7.46-7,.72l-.38-.36C622.36,260.56,622.33,259.8,622.31,259Z" transform="translate(-65.92 -69.4)"/><path class="cls-4" d="M621.57,256c-.1.29-.2.59-.31.88l-.23-.77Z" transform="translate(-65.92 -69.4)"/><path class="cls-9" d="M626.08,153.68c4.86.81,4.76,4.79,4.44,6.14-.6,2.55-3.72,2.11-6,1.48-2.08-.57-4-1.12-2.85-4.34C622.79,153.94,624.25,152.79,626.08,153.68Z" transform="translate(-65.92 -69.4)"/><path class="cls-10" d="M622.66,149.19c.63-.88,1.11-.77,1.42.24Z" transform="translate(-65.92 -69.4)"/><path class="cls-10" d="M626.85,150.24c.35.07.7.12,1.06.16C627.41,151.3,627.08,151.09,626.85,150.24Z" transform="translate(-65.92 -69.4)"/><path class="cls-12" d="M650.9,182.73c-2.42-1-4.23,1.16-6.44,1.25a6.44,6.44,0,0,1,5.95-5.68C650.58,179.78,650.74,181.25,650.9,182.73Z" transform="translate(-65.92 -69.4)"/><path class="cls-12" d="M625.15,196.69c1.34-1.26,2.84-.82,4.34-.43-.25,1.77-1.17,2.63-3,2.19C626,197.86,625.59,197.27,625.15,196.69Z" transform="translate(-65.92 -69.4)"/><path class="cls-12" d="M631.06,254.05c-.93,3.82-2.59,4-4.91,1l2.25-2Z" transform="translate(-65.92 -69.4)"/><path class="cls-12" d="M626.08,255l-.75.89c-.13-.39-.27-.78-.41-1.17A.94.94,0,0,1,626.08,255Z" transform="translate(-65.92 -69.4)"/><path class="cls-5" d="M591.68,236.38c-.73-1.48-1.47-2.95-2.2-4.43,2.15-1.71,4.37-1.6,6.89-.41C595.44,234.08,593.46,235.14,591.68,236.38Z" transform="translate(-65.92 -69.4)"/><path class="cls-12" d="M637.86,245.38l-1.29,4.13C635,247.51,635.2,246.05,637.86,245.38Z" transform="translate(-65.92 -69.4)"/></g><path class="cls-17" d="M201.45,318.23a115.16,115.16,0,0,1-15.28,1.14q-10.83-.47-17.44-4.5a41.8,41.8,0,0,0,12-2.23q7.41-4.22,16.42-1.14,10.26,2.75,15.56,7A92.61,92.61,0,0,0,201.45,318.23Zm88.22-123.45q13-.67,53.4,2.11.8,6.45-7.63,26.5-8.67,1.32-32.2-5.07-4.28,16.88-8.72,32.54l28.38-1.54q-1,8-9.8,23.14l-25.25.69q-11,35-17.27,64.34-3.19,2.56-14.82,1.54-7.35-.63-9.74-3.19-6.61-3.48-20.07-3.65-10.14.22-22.11-8.95,40.69,1.93,42.92-6.15-3.82-6.9-15.51-5.82-11.62,2.34-32.14-7.75,15.39.57,30.49-7.35a82.65,82.65,0,0,1,18.81-5.24q7.13-1.77,5.36-8.78-1.54-6.78-22.57-1-17,5.25-29.92-4.56-6-5-16.07-3.59,17.78-7.17,27.35-4.5a27.65,27.65,0,0,0,22.11-1.59q7.47-5.65-.57-13.06-3.24-4.09-12.76.29-11.81,3.24-33.17-8,16.19,1.2,27.35-6.16a56.13,56.13,0,0,1,23-8.49q11.74-1.87,18.7,1.6,5.24,4.16,12-4.5,4.79-6.51-8-11.52-15.57-4.32-22.69-.22-14.48,5.23-23.36-5.53,12-.85,24.27-9,10.44-8.66,38.42-7.75h11.91Zm-94.21,31.29q11.86-5.13,20.12-3.82,13.23,4,23.37,1.6-6.45,4.67-22.8,6Q207,230.52,195.46,226.07Z" transform="translate(-65.92 -69.4)"/><path class="cls-17" d="M370,234.05a518.9,518.9,0,0,0-15.1,52.83q-8,35.17-16,52-19.22,2.22-24.51.4,5.92-23.31,13.88-50.13t16.84-53Q366,231.48,370,234.05Zm11.91-39.49q-1.87,7.35-8.77,29-8.83,1.14-24.22,2.68A242.69,242.69,0,0,1,357.38,195,52.1,52.1,0,0,1,381.88,194.56Z" transform="translate(-65.92 -69.4)"/><path class="cls-17" d="M394.71,287.34q-8.73,29.75-14.93,50.78-6.67,2.38-26.68-4.16-.17-2.34,10-32t27.55-101.28c0-.3.32-.55.86-.74q15.38-5.52,51.57-10,6-.28,6.44,5.64-3.18,29.8-13.16,68.51-3.58,6.78-17,10.42,9.45,3.42,9.34,11.29-1.2,12.65-7,31.8-2.1,5.36-3.82,18.24-22.9,6-25,3.13-.11-12.54,10.43-43.25Q403.84,291,394.71,287.34Zm19.09-66.85q-3.42,12.93-9.69,34.7c-.49,1.52-.95,3-1.37,4.51l10.43-3.31q4.45-3.93,9.58-39.32Q421,214.73,413.8,220.49Z" transform="translate(-65.92 -69.4)"/><path class="cls-17" d="M481.62,244.25l22.85,1.26q-2,14.64-5.58,22.56L474,270.47q-6.21,19.26-11.23,37.67h29.7a110.81,110.81,0,0,1-4.22,28.78q-29.3.57-50.1-2.79c-1.93,0-4-.1-6.15-.17q2.56-19.89,16.58-61.61,10.71-31.23,20.52-71.7l-.11-.05q26.1-6.1,59.15-4.45,1.71,4.33-8.26,25.93-9.18,2.28-32.14-1Q485.1,231.65,481.62,244.25Z" transform="translate(-65.92 -69.4)"/><path class="cls-17" d="M111.72,460q15.68,1.26,19.55,5.48-8.84-2.24-24.23,1.42A30.29,30.29,0,0,1,89,463.45Q102.95,459.4,111.72,460Zm81.67-93.58a1.09,1.09,0,0,0,.17-.22q16.47-7.07,26.5-5.48a.68.68,0,0,1,.45.92q-1.94,29.11,2.51,51.18,11.29-37.85,16.07-56,3-1.81,26.33,2.45,2.52,1.6-8.32,32.2-21.26,66.85-31.06,104-3.48,4.85-25.76,4.61-5.52-10.14-3.7-49.29-4.79,15.44-13.17,39.95-4.22,3-20.51,1.19h-8.72q-28.5.81-34.2-7a30.12,30.12,0,0,0-19.38-8.09q14.76-9.75,26.39-5,4.9,3.7,22.8-.18,15.56-4.56,14.36-10.43-2.06-7.8-9.58-4A39.26,39.26,0,0,1,135,458.49q-11.46-1.49-18.35-7.63-7.19-6.67-24.06-5.59,27.59-10.14,37.62-7.18,7.13,3.93,12.54.23,12.08-6.72,7.75-11.74-7.75-4.9-21.26-1.48-11.06,2.44-24.91-4.05a29.94,29.94,0,0,0,18.07-3.25q18.24-8.83,32.43-4.16,17.77,5.3,23-.8a14,14,0,0,0,1.94-2.56q.23-1.71.57-3.36c-.34-.95-1.35-1.64-3-2.06a54.55,54.55,0,0,1-16-4.73q-10.83-7.12-26.5-6.61,26.06-9.12,36.36-7,10.89,1,15.33-5c.27-.72.52-1.45.75-2.17q-1.2-5.13-37-3.59,17-8.26,27-8Q188.71,367.6,193.39,366.39Zm-36.76,13.68a82.92,82.92,0,0,1-19.38,6.27q-10.67,2.73-15.79-1-3.7-1.6-10.77-2.06a57.24,57.24,0,0,1,19.95-4,113.5,113.5,0,0,1,14.65,1A101.45,101.45,0,0,0,156.63,380.07Z" transform="translate(-65.92 -69.4)"/><path class="cls-17" d="M340.31,367A1094.11,1094.11,0,0,1,302.47,484.2q-8.33,17.15-21.26,18.06-21.88.92-37.5-12.14-1.54-19.1,15.62-71.35,4.56-14,14.7-48a12.25,12.25,0,0,1,3.08-4.22,68.32,68.32,0,0,1,23.82-4.84,5.66,5.66,0,0,1,4.56,2.57q-23.37,61.2-33.85,112.1c-.35,4.25,1.1,4.41,4.33.45q17.89-37.38,37.38-121,11.17-3,26,5Q341.4,362.29,340.31,367Z" transform="translate(-65.92 -69.4)"/><path class="cls-17" d="M356.78,490.12q-8.65,9.12-24.85,4.28-7.51-3.25-8-10.32a485.38,485.38,0,0,1,26.27-112.9q7.57-7.29,34.88-13.71t29.8,1.46q3.25,12.3-7.8,38.35-18.53,2.57-28.1,1.83,4.22-10.49,3.65-16.3-8.27,1-10.32,4.79-17.16,52.36-21.14,81,4.67,3.93,9.86-3.59c.38-.61.78-1.22,1.19-1.83q4.68-20.06,9.81-35.39,23.31-1.93,25.59.46a159.91,159.91,0,0,0-8.1,28.44q-6,30.38-10.77,38.07-7.06,4.05-22.4,2.28C355.28,496.73,355.41,494.42,356.78,490.12Z" transform="translate(-65.92 -69.4)"/><path class="cls-17" d="M436.34,490.12q-8.65,9.12-24.85,4.28-7.51-3.25-8-10.32a485.89,485.89,0,0,1,26.27-112.9q7.57-7.29,34.88-13.71t29.81,1.46q3.24,12.3-7.81,38.35-18.53,2.57-28.1,1.83,4.21-10.49,3.65-16.3-8.27,1-10.32,4.79-17.14,52.36-21.14,81,4.67,3.93,9.86-3.59c.38-.61.78-1.22,1.19-1.83q4.68-20.06,9.81-35.39,23.31-1.93,25.59.46a160.76,160.76,0,0,0-8.1,28.44q-6,30.38-10.77,38.07-7.06,4.05-22.4,2.28C434.84,496.73,435,494.42,436.34,490.12Z" transform="translate(-65.92 -69.4)"/><path class="cls-17" d="M524.4,407.26l22.85,1.25q-2,14.65-5.59,22.57l-24.84,2.39q-6.23,19.27-11.23,37.68h29.69a110.45,110.45,0,0,1-4.22,28.78q-29.29.57-50.09-2.8-2.91,0-6.16-.17,2.56-19.89,16.59-61.61,10.71-31.23,20.51-71.69l-.11-.06q26.1-6.09,59.16-4.44,1.71,4.32-8.27,25.93-9.16,2.28-32.14-1Q527.87,394.67,524.4,407.26Z" transform="translate(-65.92 -69.4)"/><path class="cls-17" d="M620.31,389.65q-7.86,25.59-15.44,55.39-11.28,49.31-17.33,58.42-23.37-.79-26.16-4.5Q572.21,465.5,579,437.41q7.82-28.85,14.65-47.76H576.89a2.94,2.94,0,0,1-2.34-1.71l6-23.26q1.43-3.42,6.16-5.13a321,321,0,0,1,63.66-4.95,3.91,3.91,0,0,1,1.48,3.93,182.11,182.11,0,0,1-8.61,29.12,3.37,3.37,0,0,1-3.36,2Z" transform="translate(-65.92 -69.4)"/><path class="cls-17" d="M663.11,368.73q1.32-3.14,7.64-6.15,23.6-7.65,34.82-7.64,10.77-.51,9.69,8.09-4.5,27.14-9.8,44a59.42,59.42,0,0,1-4.1,11.17q-4.8,1-21.38,1.65,11.64-36.59,11.52-40.18-1.89-5.93-7.7-2.11Q677.71,389.2,670,415.29q-2,3.6,1.71,5.7L694,431.76c1.59,1.6,2.3,4.05,2.11,7.36q-7.75,29.34-14.76,51.4-4.84,7.88-20.69,10.72-30,2.89-35.74-5.76.35-10.2,10.83-40.12,10.2-3.54,23.82-1.2-6.21,17.61-7.75,23,.12,5.24,3.82,4.5,7.53-9.57,12.26-31.12.28-2.62-2.91-3.82l-18.81-6.44a9.48,9.48,0,0,1-3.76-5Q646.93,407.21,663.11,368.73Z" transform="translate(-65.92 -69.4)"/></svg>